<?xml version="1.0" standalone="no"?>
<!DOCTYPE svg PUBLIC "-//W3C//DTD SVG 1.1//EN" "http://www.w3.org/Graphics/SVG/1.1/DTD/svg11.dtd">
<svg xmlns="http://www.w3.org/2000/svg">
<metadata>Copyright (C) 2022 by original authors @ fontello.com</metadata>
<defs>
<font id="lte-font" horiz-adv-x="1000" >
<font-face font-family="lte-font" font-weight="400" font-stretch="normal" units-per-em="1000" ascent="850" descent="-150" />
<missing-glyph horiz-adv-x="1000" />
<glyph glyph-name="login" unicode="&#xe800;" d="M257-72h-138c-17 0-27 9-32 15-7 10-10 22-8 34 41 195 213 337 411 342 3 0 7 0 10 0 3 0 7 0 10 0 49-1 96-10 141-27 20-8 43 2 50 23 8 20-2 42-22 50-7 2-13 5-20 7 65 48 107 126 107 212 0 147-119 266-266 266-146 0-266-119-266-266 0-87 42-164 107-212-59-20-115-50-164-90-89-74-151-176-174-289-8-35 1-71 24-99 22-28 56-44 92-44h138c21 0 39 17 39 39 0 22-18 39-39 39z m56 656c0 104 84 188 187 188s188-84 188-188c0-100-80-182-179-187-3 0-6 0-9 0-3 0-6 0-9 0-99 5-178 87-178 187z m657-407c-17 37-54 62-96 62h-122c0 0 0 0 0 0-44 0-82-26-98-66-2-6-4-12-7-20h-256c-10 0-20-4-28-12l-67-69c-15-15-14-40 0-55l69-69c7-8 17-12 28-12h127c21 0 39 17 39 39 0 22-18 39-39 39h-111l-30 31 29 30h268c18 0 34 12 38 29 4 13 7 26 13 41 4 9 14 16 25 16 0 0 0 0 0 0h122c11 0 21-6 25-16 10-23 23-60 23-99 0-41-12-78-23-102-4-10-14-16-25-16 0 0 0 0 0 0h-123c-11 0-21 7-25 17-5 11-9 24-12 39-5 21-26 34-47 29-21-5-34-26-29-47 4-19 10-36 16-50 16-40 54-66 97-66h123c0 0 0 0 1 0 41 0 79 25 96 63 13 31 29 79 29 133 0 53-16 101-30 131z" horiz-adv-x="1000" />

<glyph glyph-name="close" unicode="&#xe801;" d="M993-104c-1 1-2 2-3 3l-451 452 452 451c11 11 11 28 0 39-11 11-29 11-40 0l-451-451-451 451c-11 11-28 11-39 0s-11-28 0-39l451-451-451-451c-12-10-13-28-3-39 10-12 27-13 39-3 1 0 2 1 3 3l451 451 451-452c10-11 28-13 39-3 12 10 13 28 3 39z" horiz-adv-x="1000" />

<glyph glyph-name="layers" unicode="&#xe802;" d="M1000 350c0 21-12 40-31 50l-74 37 74 37c0 0 0 0 0 0 19 10 31 29 31 50 0 21-12 40-31 49l-420 210c-31 16-67 16-98 0l-420-210c-19-9-31-28-31-49 0-21 12-40 31-50l74-37-74-37c-19-10-31-29-31-50s12-40 31-50l74-37-74-37c-19-9-31-28-31-50 0-21 12-40 31-49l420-210c15-8 32-12 49-12 17 0 34 4 49 12l420 210c19 9 31 28 31 49 0 22-12 41-31 50l-74 37 74 37c19 10 31 29 31 50z m-949 165c-4 3-5 7-5 9s1 6 5 8l421 210c9 5 18 7 28 7 10 0 20-2 29-7l420-210c4-2 5-6 5-8s-1-6-5-9l-420-210c-18-9-40-9-57 0l-421 210z m898-330c4-2 5-6 5-9 0-2-1-6-5-8l-420-210c-18-9-40-9-57 0l-421 210c-4 2-5 6-5 8 0 3 1 7 5 9l106 53 294-148c15-7 32-11 49-11 17 0 34 4 49 11l295 148 105-53z m0 157l-420-211c-18-9-40-9-57 0l-421 211c-4 2-5 6-5 8 0 2 1 6 5 9l106 52 294-147c15-8 32-12 49-12 17 0 34 4 49 12l295 147 105-52c4-3 5-7 5-9 0-2-1-6-5-8z" horiz-adv-x="1000" />

<glyph glyph-name="responsive" unicode="&#xe803;" d="M932 759h-773c-38 0-68-29-68-68v-227c0-14 9-23 23-23s22 9 22 23v227c0 14 10 23 23 23h773c14 0 23-9 23-23v-545c0-14-9-23-23-23h-546c-13 0-22-9-22-23s9-23 22-23h46v-68c0-14-9-23-23-23h-23c-13 0-22-9-22-22s9-23 22-23h319c13 0 22 9 22 23s-9 22-22 22h-23c-14 0-23 9-23 23v68h273c39 0 68 30 68 69v545c0 39-29 68-68 68z m-459-773c2 7 4 14 4 23v68h137v-68c0-9 2-16 4-23h-145z m413 273h-500c-13 0-22-9-22-23s9-22 22-22h500c14 0 23 9 23 22s-9 23-23 23z m-636 137h-182c-38 0-68-30-68-69v-318c0-39 30-68 68-68h182c39 0 68 29 68 68v318c0 39-29 69-68 69z m23-387c0-14-9-23-23-23h-182c-13 0-22 9-22 23v318c0 14 9 23 22 23h182c14 0 23-9 23-23v-318z" horiz-adv-x="1000" />

<glyph glyph-name="settings" unicode="&#xe804;" d="M642 130c-10 6-21 13-32 19 3 21 3 43 0 65 11 6 22 12 32 19 18 10 25 33 17 52 0 0 0 0 0 0l-23 55c-7 19-28 30-48 25-12-3-24-6-36-9-14 17-29 32-46 46 3 12 6 24 9 36 5 20-6 41-25 48l-55 23c-19 8-42 1-52-17-7-10-13-21-19-32-22 3-44 3-65 0-6 11-13 22-19 32-11 18-33 25-52 17l-56-23c-19-7-29-28-24-48 3-12 6-24 9-36-17-14-32-29-46-46-12 3-24 6-36 9-20 5-41-6-49-25l-23-55c-8-19 0-42 17-52 11-7 22-13 32-19-2-22-2-44 0-65-10-6-21-13-32-19-17-11-25-33-17-52l23-56c8-19 29-29 49-24 12 3 24 6 36 9 14-17 29-33 46-46-3-12-6-24-9-36-5-20 5-41 24-49l56-23c5-2 10-3 16-3 14 0 28 7 36 20 6 11 12 21 19 32 21-2 43-2 65 0 6-11 12-21 19-32 10-17 33-25 52-17l55 23c19 8 30 29 25 49-3 12-6 24-9 36 17 13 32 29 46 46 12-3 24-6 36-9 20-5 41 5 48 24l23 56c8 19 1 41-17 52z m-46-88c-11 3-23 6-35 9-16 4-33-2-44-15-11-15-25-29-41-41-13-10-19-28-14-44 3-12 6-23 9-34l-51-22c-6 11-12 21-18 31-9 15-25 23-42 21-19-2-38-2-58 0-16 2-33-6-41-21-6-10-12-21-18-31l-51 22c3 11 6 23 9 34 4 16-2 34-15 44-15 12-29 26-41 41-10 13-27 19-44 15-11-3-23-6-34-9l-22 51c11 6 21 12 31 18 15 8 23 25 21 41-2 20-2 39 0 58 2 17-6 33-21 42-10 6-20 12-31 18l22 51c11-3 23-6 34-9 17-5 34 1 44 14 12 16 26 30 41 41 13 11 19 28 15 44-3 12-6 24-9 35l51 21c6-10 12-20 18-31 8-14 25-23 41-20 20 2 39 2 58 0 17-3 33 6 42 20 6 11 12 21 18 31l51-21c-3-11-6-23-9-35-5-16 1-33 14-44 16-11 30-25 41-41 11-13 28-19 44-14 12 3 24 6 35 9l21-51c-10-6-20-12-31-18-14-9-23-25-20-42 2-19 2-38 0-58-3-16 6-33 20-41 11-6 21-12 31-18l-21-51z m-124 198c0 0 0 0 0 0-32 77-121 114-199 82-78-32-115-121-83-199 16-38 45-67 83-83 19-7 39-11 58-11s40 4 59 11c77 33 114 122 82 200z m-99-158c-27-11-56-11-83 0-27 11-47 31-58 58-23 55 3 118 58 141 14 5 27 8 41 8 42 0 83-25 100-66 23-55-4-119-58-141z m597 571c-8 1-16 2-24 3-4 14-9 27-16 39 5 6 10 13 15 19 10 14 8 34-4 46l-31 31c-12 12-32 14-46 4-6-5-13-10-19-15-12 7-25 12-39 16-1 8-2 16-3 24-3 17-18 30-35 30h-44c-17 0-32-13-35-30-1-8-2-16-3-24-14-4-27-9-39-16-6 5-13 10-19 15-14 10-34 8-46-4l-31-31c-12-12-14-32-4-46 5-6 10-13 15-19-7-12-12-25-16-39-8-1-16-2-24-3-17-3-30-18-30-35v-44c0-17 13-32 30-35 8-1 16-2 24-3 4-14 9-27 16-39-5-6-10-13-15-19-10-14-8-34 4-46l31-31c12-12 32-14 46-4 6 5 13 10 19 15 12-7 25-12 39-16 1-8 2-16 3-24 3-17 18-30 35-30h44c17 0 32 13 35 30 1 8 2 16 3 24 14 4 27 9 39 16 6-5 13-10 19-15 14-10 34-8 46 4l31 31c12 12 14 32 4 46-5 6-10 13-15 19 7 12 12 25 16 39 8 1 16 2 24 3 17 3 30 18 30 35v44c0 17-13 32-30 35z m-12-73c-7-1-15-2-22-3-14-2-26-12-29-25-4-14-9-26-16-38-7-13-6-28 3-39 4-6 8-12 13-17l-23-23c-5 5-11 9-17 13-11 9-26 10-39 3-12-7-24-12-38-16-13-3-23-15-25-29-1-7-2-15-3-22h-32c-1 7-2 15-3 22-2 14-12 26-25 29-14 4-26 9-38 16-13 7-28 6-39-3-6-4-12-8-17-13l-23 23c5 5 9 11 13 17 9 11 10 26 3 39-7 12-12 24-16 38-3 13-15 23-29 25-7 1-15 2-22 3v32c7 1 15 2 22 3 14 2 26 12 29 25 4 14 9 26 16 38 7 13 6 28-3 39-4 6-8 12-13 17l23 23c5-5 11-9 17-13 11-9 26-10 39-3 12 7 24 12 38 16 13 3 23 15 25 29 1 7 2 15 3 22h32c1-7 2-15 3-22 2-14 12-26 25-29 14-4 26-9 38-16 13-7 28-6 39 3 6 4 12 8 17 13l23-23c-5-5-9-11-13-17-9-11-10-26-3-39 7-12 12-24 16-38 3-13 15-23 29-25 7-1 15-2 22-3v-32z m-212 107c-50 0-91-41-91-91 0-50 41-91 91-91s91 41 91 91c0 50-41 91-91 91z m0-141c-28 0-50 22-50 50 0 28 22 50 50 50 28 0 50-22 50-50 0-28-22-50-50-50z" horiz-adv-x="1000" />

<glyph glyph-name="phone-call" unicode="&#xe805;" d="M1000 27c-2 16-10 31-24 41l-192 149c-33 26-77 29-113 8l-35-21c-22-12-49-10-68 5-29 22-72 57-113 98-40 40-75 82-96 110-15 20-17 47-5 68l21 36c21 36 18 80-8 113l-149 192c-10 14-24 22-41 24-16 2-33-3-45-14-33-27-75-62-90-77-29-29-42-68-42-130 0-71 131-337 290-489 152-159 418-290 490-290 61 0 100 13 129 42 16 16 55 63 77 90 11 12 15 29 14 45z m-45-20c-36-44-63-76-74-87-16-15-39-30-102-30-54 0-312 123-461 278-155 149-278 407-278 461 0 63 15 86 31 102 10 10 41 37 86 74 4 3 9 5 13 5 1 0 2 0 3 0 5-1 10-4 14-8l149-193c15-20 17-46 4-68l-20-36c-21-35-18-79 7-112 22-29 58-72 100-114 42-43 87-79 116-102 33-25 77-28 113-7 0 0 0 0 0 0l35 20c22 13 49 11 68-4l193-149c4-4 7-9 8-14 1-6-1-12-5-16z m-261 764c106-38 189-121 227-227 3-8 11-13 19-13 2 0 5 0 7 1 10 4 16 15 12 26-43 117-134 208-251 251-11 4-22-2-26-12-4-10 2-22 12-26z m-55-150c61-22 110-71 132-132 3-8 10-13 19-13 2 0 4 0 6 1 11 4 16 15 12 26-25 71-84 130-155 155-10 4-22-1-26-12-4-10 2-21 12-25z m-54-151c16-6 29-19 35-35 3-9 11-14 19-14 2 0 5 1 7 1 10 4 16 16 12 26-10 28-32 50-60 60-10 4-22-2-26-12-3-10 2-22 13-26z" horiz-adv-x="1000" />

<glyph glyph-name="right-arrow-1" unicode="&#xe806;" d="M993 366l0 0-227 227c-8 10-22 11-32 3-9-8-11-23-2-32 0-1 1-2 2-3l189-188h-900c-13 0-23-11-23-23s10-23 23-23h900l-189-188c-9-8-11-23-2-32s22-11 32-3c1 1 1 2 2 3l227 227c9 9 9 23 0 32z" horiz-adv-x="1000" />

<glyph glyph-name="share" unicode="&#xe807;" d="M885 683c0-74-60-135-135-135s-135 61-135 135c0 75 60 136 135 136s135-61 135-136z m0 0m-135-166c-92 0-167 74-167 166 0 92 75 167 167 167s167-75 167-167c0-92-75-166-167-166z m0 271c-57 0-104-47-104-105 0-57 47-104 104-104s104 47 104 104c0 58-46 105-104 105z m0 0m135-771c0-75-60-136-135-136s-135 61-135 136c0 75 60 135 135 135s135-60 135-135z m0 0m-135-167c-92 0-167 75-167 167 0 92 75 166 167 166s167-74 167-166c0-92-75-167-167-167z m0 271c-57 0-104-47-104-104 0-58 47-105 104-105s104 47 104 105c0 57-46 104-104 104z m0 0m-448 229c0-75-60-135-135-135-75 0-136 60-136 135s61 135 136 135c75 0 135-60 135-135z m0 0m-135-167c-92 0-167 75-167 167s75 167 167 167c92 0 166-75 166-167s-74-167-166-167z m0 271c-58 0-104-47-104-104s46-104 104-104c57 0 104 47 104 104s-47 104-104 104z m0 0m98-84c-14 0-28 8-36 21-12 20-5 46 15 57l387 220c20 12 45 5 57-15 11-20 4-46-16-57l-386-220c-7-4-14-6-21-6z m0 0m387-344c-7 0-14 2-21 6l-387 220c-19 12-26 37-15 57 11 20 37 27 57 16l386-221c20-11 27-37 16-57-8-13-22-21-36-21z m0 0" horiz-adv-x="1000" />

<glyph glyph-name="email" unicode="&#xe808;" d="M1000 670c0 15-5 29-15 39 0 0 0 1 0 1-11 12-27 20-45 20h-880c-18 0-34-8-45-20 0 0 0 0 0-1-9-10-15-24-15-39v-640c0-15 6-29 15-40 1-1 2-2 2-3 1 0 2-1 3-2 11-9 25-15 40-15h880c15 0 29 6 40 15 1 1 2 2 3 2 0 1 1 2 2 3 9 11 15 25 15 40v640z m-246-426c-8 8-20 8-28 0-8-8-8-20 0-28l206-206h-864l206 206c8 8 8 20 0 28s-20 8-28 0l-206-206v618l321-346c36-38 86-60 139-60 53 0 103 22 139 60l321 346v-618l-206 206z m-691 446h874l-327-352c-29-31-68-48-110-48s-81 17-110 48l-327 352z" horiz-adv-x="1000" />

<glyph glyph-name="location" unicode="&#xe809;" d="M500 850c-187 0-340-152-340-340 0-204 311-634 324-652 4-5 10-8 16-8 6 0 12 3 16 8 13 18 324 448 324 652 0 188-152 340-340 340z m0-945c-65 92-300 439-300 605 0 165 135 300 300 300s300-135 300-300c0-166-235-513-300-605z m0 785c-99 0-180-81-180-180 0-99 81-180 180-180s180 81 180 180c0 99-81 180-180 180z m0-320c-77 0-140 63-140 140 0 77 63 140 140 140s140-63 140-140c0-77-63-140-140-140z" horiz-adv-x="1000" />

<glyph glyph-name="video" unicode="&#xe80a;" d="M842 688c-90 91-211 140-339 140s-248-49-339-140-140-211-140-339 50-248 140-339 211-140 339-140 249 49 339 140 141 211 141 339-50 249-141 339z m-339-808c-258 0-469 210-469 469 0 259 211 469 469 469 259 0 470-210 470-469 0-259-211-469-470-469z m-107 297l304 170-304 175v-345z m10 327l274-157-274-153v310z" horiz-adv-x="1000" />

<glyph glyph-name="placeholder" unicode="&#xe80b;" d="M500 417c64 0 117 52 117 116s-53 117-117 117-117-52-117-117 53-116 117-116z m0 200c46 0 83-38 83-84s-37-83-83-83-83 37-83 83 37 84 83 84z m-3-680l256 370c96 128 82 338-30 449-60 61-141 94-226 94s-166-33-226-94c-112-111-125-321-30-449l256-370z m-202 796c54 54 126 84 202 84s148-30 203-84c100-101 113-291 26-407l-229-330-229 331c-87 115-74 305 27 406z m407-600c-9 1-17-5-18-14s5-18 14-19c175-20 269-76 269-108 0-46-178-109-467-109s-467 63-467 109c0 32 94 88 269 108 9 1 16 10 15 19-1 9-10 15-19 14-175-20-298-79-298-141 0-71 172-142 500-142s500 71 500 142c0 62-123 121-298 141z" horiz-adv-x="1000" />

<glyph glyph-name="time" unicode="&#xe80c;" d="M500 850c-276 0-500-224-500-500s224-500 500-500 500 224 500 500-224 500-500 500z m0-967c-257 0-467 210-467 467s210 467 467 467 467-210 467-467-210-467-467-467z m0 867c-9 0-17-7-17-17v-383h-250c-9 0-16-7-16-17s7-16 16-16h267c9 0 17 7 17 16v400c0 10-8 17-17 17z" horiz-adv-x="1000" />

<glyph glyph-name="quote_soft" unicode="&#xe80d;" d="M621 725c-54 58-121 83-200 83-42 0-79-8-113-20-37-17-70-38-95-63-25-25-46-58-63-92-12-37-21-75-21-116 0-67 21-121 59-167 37-46 87-83 141-112 25-13 42-30 54-55 13-25 17-50 13-83 0-29-8-62-17-96-8-33-21-62-33-92 0-4 4-8 17-12 8-4 12-8 16-8 17 12 42 33 79 66 38 34 75 80 117 134 38 54 71 116 100 191 29 75 38 150 33 234-4 83-33 150-87 208z m742-208c-5 83-34 150-88 208-54 58-121 83-200 83-42 0-79-8-112-20-38-17-67-34-92-63-25-25-46-58-63-92-16-37-25-75-25-116 0-67 21-121 59-167 37-46 87-83 141-112 30-17 46-34 59-59 12-25 16-50 12-83 0-29-8-63-16-96-9-33-21-63-34-92 0-4 4-8 17-12 4-4 8-9 17-9 16 13 41 34 79 67 37 33 75 79 116 134 38 54 71 116 100 191 25 79 38 154 30 238z" horiz-adv-x="1500" />

<glyph glyph-name="search" unicode="&#xe80e;" d="M988-79l-285 285c56 68 89 154 89 248 0 218-178 396-396 396s-396-178-396-396 178-396 396-396c94 0 181 34 249 89l284-285c8-8 19-12 29-12s22 4 30 12c16 16 16 43 0 59z m-592 221c-172 0-313 140-313 312s141 313 313 313 312-140 312-313-140-312-312-312z" horiz-adv-x="1000" />

<glyph glyph-name="filter" unicode="&#xe80f;" d="M125 600h458c0-46 38-83 84-83h83c46 0 83 37 83 83h42c23 0 42 19 42 42s-19 41-42 41h-42c0 46-37 84-83 84h-83c-46 0-84-38-84-84h-458c-23 0-42-18-42-41s19-42 42-42z m542 83h83v-41-42h-83v83z m208-291h-375c0 46-37 83-83 83h-84c-46 0-83-37-83-83h-125c-23 0-42-19-42-42 0-23 19-42 42-42h125c0-46 37-83 83-83h84c46 0 83 37 83 83h375c23 0 42 19 42 42 0 23-19 42-42 42z m-542-84v84h84v-42-42h-84z m542-208h-125c0 46-37 83-83 83h-84c-46 0-83-37-83-83h-375c-23 0-42-19-42-42s19-41 42-41h375c0-46 37-84 83-84h84c46 0 83 38 83 84h125c23 0 42 19 42 41s-19 42-42 42z m-292-83v83h84v-42-41h-84z" horiz-adv-x="1000" />

<glyph glyph-name="call-1" unicode="&#xe810;" d="M974 79l-203 135c-25 17-60 11-79-13l-59-76c-7-10-21-13-32-7l-11 6c-37 21-84 46-177 139s-118 140-139 177l-6 11c-6 11-3 25 7 32l76 59c24 19 30 54 13 79l-135 203c-18 26-53 34-80 18l-84-51c-27-16-46-41-55-71-30-111-7-303 275-585 225-225 392-285 507-285 26 0 53 3 78 10 30 9 55 28 71 55l51 84c16 27 8 62-18 80z m-11-63l-51-84c-11-19-29-34-51-40-102-28-281-5-552 267s-295 450-267 552c7 22 21 40 40 51l85 51c11 7 26 4 34-8l73-110 62-92c7-11 5-26-6-34l-76-59c-23-18-29-50-15-75l6-11c21-39 48-88 144-185 97-96 146-123 185-144l11-6c25-14 57-8 75 15l58 76c9 11 24 13 35 6l202-135c12-8 15-23 8-35z m-396 667c156 0 283-127 283-283 0-9 7-17 17-17s16 8 16 17c0 175-142 316-316 317-10 0-17-8-17-17s7-17 17-17z m0-100c101 0 183-82 183-183 0-9 7-17 17-17 9 0 16 8 16 17 0 120-97 217-216 217-10 0-17-8-17-17s7-17 17-17z m0-100c46 0 83-37 83-83 0-9 7-17 17-17s16 8 16 17c0 64-52 117-116 117-10 0-17-8-17-17s7-17 17-17z" horiz-adv-x="1000" />

<glyph glyph-name="chat-1" unicode="&#xe811;" d="M1001 370c-3 131-57 253-151 344-95 90-218 138-349 136-131 2-254-46-349-136-94-91-148-213-151-344l0 0v-1c1-133 58-260 157-348v-121c0-24 16-44 39-49 3-1 7-1 10-1 9 0 18 2 26 7l97 61c55-19 112-29 170-29h1c3 0 6 0 9 0 127 0 248 48 340 137 94 90 148 212 151 343l0 1z m-192-302c-83-80-192-122-307-120l-1 0h0c-54 0-107 9-158 28-13 4-26 3-38-4l-88-56v112c0 12-6 24-15 32-90 78-142 191-142 309 2 115 50 223 133 302 83 80 192 123 307 120l1 0 1 0c115 3 224-40 307-120 83-79 130-186 133-301-3-115-50-222-133-302z m0 0m-93 442h-430c-16 0-29-13-29-30 0-16 13-29 29-29h430c16 0 29 13 29 29 0 17-13 30-29 30z m0 0m0-130h-430c-16 0-29-13-29-29 0-17 13-30 29-30h430c16 0 29 13 29 30 0 16-13 29-29 29z m0 0m0-130h-211c-17 0-30-13-30-29 0-16 13-29 30-29h211c16 0 29 13 29 29 0 16-13 29-29 29z m0 0" horiz-adv-x="998" />

<glyph glyph-name="favorites" unicode="&#xe812;" d="M922 456c18 18 25 44 17 68-8 24-28 41-53 45l-219 31c-4 1-8 4-10 8l-98 198c-11 23-34 37-59 37-25 0-48-14-59-37l-98-198c-2-4-6-7-10-8l-219-31c-25-4-45-21-53-45-8-24-1-50 17-68l158-154c3-3 5-8 4-12l-37-218c-5-25 5-49 26-64 20-15 47-17 69-5l196 103c4 2 8 2 12 0l196-103c10-6 20-8 31-8 13 0 27 4 38 13 21 15 31 39 27 64l-38 218c-1 4 1 9 4 12l158 154z m-214-175l38-218c1-7-4-11-6-13-2-1-7-4-14-1l-195 103c-10 5-20 8-31 8-10 0-21-3-31-8l-195-103c-7-3-12 0-14 1-2 2-7 6-5 13l37 218c4 22-4 43-19 59l-158 154c-6 5-4 11-4 13 1 3 4 8 11 9l219 32c21 3 40 17 49 36l98 198c4 7 10 8 12 8 3 0 9-1 12-8v0l98-198c9-19 28-33 49-36l219-32c8-1 10-6 11-9 1-2 2-8-3-13l-159-154c-15-16-22-37-19-59z m100 525c-12 8-28 6-37-6l-28-39c-8-11-6-28 6-36 5-4 10-5 16-5 8 0 16 3 21 10l28 39c9 12 6 28-6 37z m-551-44l-28 38c-9 12-25 15-37 6-12-9-15-25-6-37l28-38c5-7 13-11 21-11 6 0 11 1 16 5 12 8 14 25 6 37z m-160-511c-5 14-20 21-33 17l-46-15c-14-5-21-19-17-33 4-11 14-18 25-18 3 0 6 0 9 1l45 15c14 4 21 19 17 33z m403-293c-15 0-26-12-26-27v-47c0-15 11-27 26-27 15 0 26 12 26 27v47c0 15-11 27-26 27z m482 295l-45 15c-14 4-29-3-34-17-4-14 3-29 17-34l46-14c2-1 5-2 8-2 11 0 21 8 25 19 4 14-3 28-17 33z" horiz-adv-x="1000" />

<glyph glyph-name="exchange" unicode="&#xe813;" d="M854 704c-95 94-220 146-354 146s-259-52-354-146c-94-95-146-220-146-354s52-259 146-354c95-94 220-146 354-146s259 52 354 146c94 95 146 220 146 354s-52 259-146 354z m-42-666c-83-84-194-129-312-129s-229 45-312 129c-83 83-129 194-129 312s46 229 129 312c83 84 194 129 312 129s229-45 312-129c84-83 129-194 129-312s-45-229-129-312z m-357 644c-73-10-139-43-192-95-87-88-118-216-84-331l-49 21-23-53 142-64 63 143-53 24-24-54c-28 95-2 200 70 272 43 43 98 70 158 79 59 7 119-4 170-32l29 51c-63 34-136 48-207 39z m438-206l-142 64-63-143 53-23 24 53c28-95 2-200-70-272-43-43-98-70-158-78-58-8-119 3-170 31l-28-51c49-27 105-41 162-41 14 0 29 1 44 2 73 10 139 43 192 95 87 88 118 216 84 331l49-21 23 53z" horiz-adv-x="1000" />

<glyph glyph-name="font" unicode="&#xe814;" d="M880 445v-27c-29 24-67 38-108 38-96 0-174-78-174-174s78-174 174-174c41 0 79 15 108 39v-28h66v326h-66z m-108-271c-60 0-109 48-109 108 0 60 49 109 109 109s108-49 108-109c0-60-48-108-108-108z m-446 548l-265-603h71l91 207h206l91-207h71l-265 603z m-74-331l74 169 75-169h-149z" horiz-adv-x="1000" />

<glyph glyph-name="gear" unicode="&#xe815;" d="M601-150h-202l-27 91c-24 8-48 18-71 30l-83-46-143 143 46 83c-12 23-22 47-30 71l-91 27v202l91 27c8 24 18 48 30 71l-46 83 143 143 83-46c23 12 47 22 71 30l27 91h202l27-91c24-8 48-18 71-30l83 46 143-143-46-83c12-23 22-47 30-71l91-27v-202l-91-27c-8-24-18-48-30-71l46-83-143-143-83 46c-23-12-47-22-71-30z m-158 59h114l24 80 15 4c31 8 61 21 88 36l15 9 73-41 81 81-41 74 9 14c16 27 28 57 36 88l4 16 80 23v114l-80 24-4 15c-8 31-20 61-36 88l-9 15 41 73-81 81-73-41-15 9c-27 16-57 28-88 36l-15 4-24 80h-114l-23-80-16-4c-31-8-61-20-88-36l-14-9-74 41-81-81 41-73-9-15c-15-27-28-57-36-88l-4-15-80-24v-114l80-23 4-16c8-31 21-61 36-88l9-14-41-74 81-81 74 41 14-9c27-15 57-28 88-36l16-4z m0 0m57 304c-76 0-137 61-137 137s61 137 137 137 137-61 137-137-61-137-137-137z m0 216c-43 0-78-36-78-79s35-78 78-78 79 35 79 78-36 79-79 79z m0 0m0-333c-140 0-254 114-254 254s114 254 254 254 254-114 254-254-114-254-254-254z m0 450c-108 0-196-88-196-196s88-196 196-196 196 88 196 196-88 196-196 196z m0 0" horiz-adv-x="1000" />

<glyph glyph-name="homepages" unicode="&#xe816;" d="M844 663h-438c-17 0-31-15-31-32v-93h-94c-17 0-31-15-31-32v-93h-94c-17 0-31-15-31-32v-312c0-17 14-31 31-31h438c17 0 31 14 31 31v94h94c17 0 31 14 31 31v94h94c17 0 31 14 31 31v312c0 17-14 32-31 32z m-281-563h-375v250h375v-250z m125 125h-63v156c0 17-14 32-31 32h-281v62h375v-250z m125 125h-63v156c0 17-14 32-31 32h-281v62h375v-250z m-500-125h-32c-17 0-31-14-31-31s14-31 31-31h32c17 0 31 14 31 31s-14 31-31 31z" horiz-adv-x="1000" />

<glyph glyph-name="parallax" unicode="&#xe817;" d="M625 538h-562c-35 0-63-28-63-63v-563c0-34 28-62 63-62h562c35 0 63 28 63 62v563c0 35-28 63-63 63z m0-626h-562v563h562v-563z m313 938h-563c-34 0-62-28-62-62v-157h62v157h563v-563h-157v-62h157c34 0 62 28 62 62v563c0 34-28 62-62 62z" horiz-adv-x="1000" />

<glyph glyph-name="seo-1" unicode="&#xe818;" d="M927 611l48 48c8 8 11 20 7 31-4 11-14 18-25 19l-90 8-8 90c-1 11-8 21-19 25-11 4-23 1-31-7l-48-48c-79 48-168 73-261 73-134 0-259-52-354-146-94-95-146-220-146-354s52-259 146-354c95-94 220-146 354-146s259 52 354 146c94 95 146 220 146 354 0 93-25 182-73 261z m-116 76c1-14 12-25 26-26l52-5-70-70-76 7-7 76 70 70z m-211-337c0-55-45-100-100-100s-100 45-100 100 45 100 100 100c17 0 33-5 47-12l-68-67c-11-12-11-30 0-42 6-5 14-8 21-8s15 3 21 8l67 68c7-14 12-30 12-47z m-11 131c-25 17-56 27-89 27-87 0-158-71-158-158s71-158 158-158 158 71 158 158c0 33-10 64-27 89l83 84c39-47 61-108 61-173 0-152-123-275-275-275s-275 123-275 275 123 275 275 275c65 0 126-22 173-61z m223-443c-83-84-194-129-312-129s-229 45-312 129c-83 83-129 194-129 312s46 229 129 312c83 84 194 129 312 129 77 0 152-19 218-57l-33-33c-5-5-8-13-8-20 0-1 0-2 0-3l4-47c-53 34-114 53-181 53-184 0-334-150-334-334s150-334 334-334 334 150 334 334c0 67-19 128-53 181l47-4c0 0 1 0 2 0 0 0 0 0 1 0 0 0 0 0 1 0 0 0 1 0 2 0 0 0 0 0 1 0 0 0 1 0 2 0 0 0 0 0 1 1 0 0 1 0 2 0 0 0 0 0 1 1 0 0 1 0 1 0 1 0 1 1 1 1 1 0 2 0 2 1 0 0 1 0 1 0 1 1 1 1 2 1 0 1 0 1 1 1 0 1 1 1 2 2l33 33c38-66 57-141 57-218 0-118-45-229-129-312z m0 0" horiz-adv-x="1000" />

<glyph glyph-name="text" unicode="&#xe819;" d="M620 500v61c0 16-14 29-30 29h-297c-17 0-30-13-30-29v-61c0-16 13-30 30-30s29 14 29 30v31h90v-245h-20c-17 0-30-13-30-29s13-29 30-29h99c16 0 30 13 30 29s-14 29-30 29h-20v245h90v-31c0-16 13-30 29-30s30 14 30 30z m368-506l-116 115 67 66c16 17 7 46-17 50l-120 19v389c46 13 81 56 81 107 0 61-50 110-110 110-51 0-94-34-107-81h-449c-13 47-56 81-107 81-60 0-110-49-110-110 0-51 34-94 81-107v-449c-47-13-81-56-81-106 0-61 50-111 110-111 51 0 94 35 107 81h389l19-120c4-24 33-34 50-17l66 67 115-116c12-11 30-11 42 0l90 90c11 12 11 30 0 42z m-215 797c28 0 51-23 51-51s-23-52-51-52-52 23-52 52 23 51 52 51z m-714-51c0 28 23 51 51 51s52-23 52-51-23-52-52-52-51 23-51 52z m51-714c-28 0-51 23-51 52s23 51 51 51 52-23 52-51-23-52-52-52z m107 81c-11 37-40 67-77 77v449c37 11 66 40 77 77h449c10-37 40-66 77-77v-380l-133 21c-20 3-37-14-33-34l20-133z m660-182l-115 115c-12 11-30 11-42 0l-46-46-33 215 215-33-46-46c-11-12-11-30 0-42l115-115z" horiz-adv-x="1000" />

<glyph glyph-name="coding-1" unicode="&#xe81a;" d="M971 145h-30v498c0 48-39 88-87 88h-707c-49 0-88-40-88-88v-498h-30c-16 0-29-13-29-29 0-81 66-147 147-147h707c80 0 146 66 146 147 0 16-13 29-29 29z m-854 498c0 16 13 29 30 29h707c16 0 29-13 29-29v-498h-766v498z m737-615h-707c-39 0-71 24-83 58h873c-13-34-45-58-83-58z m-511 519c-12 11-30 11-41 0l-118-118c-11-11-11-30 0-41l118-117c11-12 30-12 41 0 12 11 12 30 0 41l-96 97 96 96c12 11 12 30 0 42z m355 0c-11 11-30 11-41 0-11-12-11-31 0-42l97-96-97-97c-11-11-11-30 0-41 12-12 30-12 41 0l118 117c11 11 11 30 0 41l-118 118z m-130 65c-16 5-32-3-37-18l-117-352c-6-15 3-32 18-37 16-5 32 3 37 18l117 352c6 15-3 32-18 37z" horiz-adv-x="1000" />

<glyph glyph-name="document" unicode="&#xe81b;" d="M897 590l-251 251c-5 6-13 9-20 9h-424c-59 0-108-48-108-108v-784c0-60 49-108 108-108h596c60 0 108 48 108 108v612c0 7-3 15-9 20z m-242 160l151-151h-102c-27 0-49 22-49 49z m143-841h-596c-27 0-49 22-49 49v784c0 27 22 49 49 49h394v-143c0-59 49-108 108-108h143v-582c0-27-22-49-49-49z m-423 502h-126c-16 0-29-13-29-30v-125c0-16 13-29 29-29h126c16 0 29 13 29 29v125c0 17-13 30-29 30z m-30-126h-67v67h67z m30-125h-126c-16 0-29-13-29-30v-125c0-16 13-30 29-30h126c16 0 29 14 29 30v125c0 17-13 30-29 30z m-30-126h-67v67h67z m126 347c0-16 13-29 29-29h126c16 0 29 13 29 29s-13 30-29 30h-126c-16 0-29-13-29-30z m280-96h-251c-16 0-29-13-29-29s13-29 29-29h251c16 0 29 13 29 29s-13 29-29 29z m-251-184h126c16 0 29 13 29 29s-13 30-29 30h-126c-16 0-29-13-29-30s13-29 29-29z m251-67h-251c-16 0-29-13-29-29s13-30 29-30h251c16 0 29 14 29 30s-13 29-29 29z m-502 601h157c16 0 29 13 29 29s-13 29-29 29h-157c-16 0-29-13-29-29s13-29 29-29z m0-126h251c16 0 29 13 29 29s-13 30-29 30h-251c-16 0-29-13-29-30s13-29 29-29z" horiz-adv-x="1000" />

<glyph glyph-name="right-arrow-2" unicode="&#xe81c;" d="M977 330h-954c-11 0-20 9-20 20s9 21 20 21h904l-124 124c-8 8-8 21 0 29 8 8 21 8 29 0l160-159c6-6 7-15 4-23-3-7-11-12-19-12l0 0z m-160-160c-5 0-10 2-14 6-8 8-8 21 0 29l160 160c8 8 21 8 29 0s8-21 0-29l-160-160c-4-4-9-6-15-6l0 0z" horiz-adv-x="1000" />

<glyph glyph-name="search-2" unicode="&#xe81d;" d="M928-34l-226 227c49 59 79 136 79 220 0 189-154 343-343 343s-344-154-344-343 154-344 344-344c83 0 160 30 219 79l227-226c6-6 14-10 22-10s16 4 22 10c13 12 13 32 0 44l0 0z m-772 447c0 155 126 281 282 281s281-126 281-281-126-282-281-282-282 126-282 282l0 0z" horiz-adv-x="1000" />

<glyph glyph-name="account" unicode="&#xe81e;" d="M742 344c-12 13-32 13-44 1-13-12-13-32-1-44 1-1 1-1 1-1 54-53 84-125 83-200 0-38-109-94-281-94s-281 56-281 94c0 74 29 146 82 199 13 12 13 32 1 44-12 12-32 13-44 0 0 0-1 0-1 0-65-64-101-152-101-243 0-102 177-156 344-156s344 54 344 156c0 92-37 180-102 244z m-242-25c121 0 219 98 219 219s-98 218-219 218-219-98-219-218c0-121 98-219 219-219z m0 375c86 0 156-70 156-156s-70-157-156-157-156 70-156 157c0 86 70 156 156 156z" horiz-adv-x="1000" />

<glyph glyph-name="play" unicode="&#xe81f;" d="M771 314c13 8 21 21 21 36s-8 29-21 36l-500 292c-13 7-29 7-42 0-13-8-21-22-21-36v-584c0-15 8-28 21-36 13-7 29-7 42 0l500 292z m-479-183l375 219-375 219 0-438z" horiz-adv-x="1000" />

<glyph glyph-name="outgoing-call" unicode="&#xe820;" d="M1000 733v-166c0-22-17-39-39-39-22 0-39 17-39 39v150l-240-240c-8-8-18-12-28-12s-20 4-27 12c-16 15-16 40 0 55l240 240h-150c-22 0-39 17-39 39 0 22 17 39 39 39h166c64 0 117-53 117-117z m-45-587c-55 53-101 83-144 95-60 18-116 2-166-46 0 0 0-1 0-1l-53-52c-32 18-96 59-166 129l-5 5c-70 69-110 133-129 166l52 53c0 0 1 0 1 0 48 50 64 106 46 166-12 43-42 89-95 144-27 27-63 44-102 45-38 1-76-12-104-38l-1-1c-1 0-2-1-2-1-57-58-88-138-87-233 1-160 89-344 236-491 0 0 0 0 1 0 27-28 59-55 93-81 17-14 41-10 55 7s9 41-8 55c-31 24-60 49-86 74 0 1 0 1 0 1-133 132-212 295-213 436 0 73 22 133 64 176l0 0c28 25 71 24 98-4 101-105 93-154 49-200l-73-73c-11-11-14-29-8-43 2-4 47-103 157-213l6-6c110-110 209-155 213-157 14-6 32-3 43 8l73 73c46 44 95 52 200-49 28-27 29-70 4-98l0-1c-42-41-102-63-174-63-1 0-2 0-2 0-58 0-124 16-193 46-20 8-43-1-51-21-9-20 0-42 20-51 79-34 154-52 223-52 1 0 2 0 3 0 93 0 173 30 230 87 0 0 1 1 1 1l1 2c26 28 39 66 38 104-1 39-18 75-45 102z m0 0" horiz-adv-x="1000" />

<glyph glyph-name="chat" unicode="&#xe821;" d="M500 850c-276 0-500-206-500-460 0-76 21-151 60-217 20-35 23-77 8-117l-67-179c-3-7-1-16 5-21 4-4 9-6 14-6 3 0 5 0 8 1l235 95c29 11 61 13 92 4 47-13 96-20 145-20 276 0 500 206 500 460s-224 460-500 460z m0-880c-46 0-91 6-135 18-39 11-80 10-117-5l-193-78 51 137c19 51 15 106-12 151-36 61-54 128-54 197 0 232 206 420 460 420s460-188 460-420-206-420-460-420z m0 480c-33 0-60-27-60-60s27-60 60-60 60 27 60 60-27 60-60 60z m-200 0c-33 0-60-27-60-60s27-60 60-60 60 27 60 60-27 60-60 60z m400 0c-33 0-60-27-60-60s27-60 60-60c33 0 60 27 60 60s-27 60-60 60z" horiz-adv-x="1000" />

<glyph glyph-name="checkmark" unicode="&#xe822;" d="M991 738c-11 10-28 9-37-2l-613-716-296 296c-10 10-27 10-37 0-11-10-11-27 0-37l316-316c4-5 11-8 18-8 0 0 1 0 1 0 8 1 14 4 19 9l632 737c9 11 8 28-3 37z" horiz-adv-x="1000" />

<glyph glyph-name="arrow-long" unicode="&#xe823;" d="M989 337l-96 95c-2 3-6 3-8 0-2-2-2-5 0-8l87-87h-956c-3 0-5-2-5-4v0c0-3 2-5 5-5h956l-87-87c-2-2-2-6 0-8 1-1 3-2 4-2s3 1 4 2l96 96c2 2 2 5 0 8z" horiz-adv-x="1000" />

<glyph glyph-name="right-arrow" unicode="&#xe824;" d="M594 744l-69-69 274-273h-791v-98h791l-274-273 69-69 390 391-390 391z" horiz-adv-x="1000" />

<glyph glyph-name="search-3" unicode="&#xe825;" d="M988-79l-285 285c56 68 89 154 89 248 0 218-178 396-396 396s-396-178-396-396 178-396 396-396c94 0 181 34 249 89l284-285c8-8 19-12 29-12s22 4 30 12c16 16 16 43 0 59z m-592 221c-172 0-313 140-313 312s141 313 313 313 312-140 312-313-140-312-312-312z" horiz-adv-x="1000" />

<glyph glyph-name="tick" unicode="&#xe826;" d="M895 634c-13 13-33 13-46 0l-500-500-198 198c-13 13-33 13-46 0-12-12-12-33 0-45l221-221c6-6 14-10 23-10s17 4 23 10l523 523c12 12 12 33 0 45z" horiz-adv-x="1000" />

<glyph glyph-name="shopping-bag" unicode="&#xe827;" d="M883 616h-119c-16 131-128 234-264 234s-248-103-264-234h-119c-21 0-39-18-39-39v-688c0-22 18-39 39-39h766c21 0 39 17 39 39v688c0 21-18 39-39 39z m-383 156c93 0 170-68 185-156h-370c15 88 92 156 185 156z m344-844h-688v610h78v-118c0-21 18-39 39-39s40 18 40 39v118h375v-118c0-21 17-39 39-39s39 18 39 39v118h78z" horiz-adv-x="1000" />

<glyph glyph-name="menu_arrow" unicode="&#xe828;" d="M969 355c0 6-2 12-6 16l-444 444c-9 8-23 8-31 0l-22-21c-8-9-8-23 0-32l371-370h-791c-12 0-22-10-22-22v-30c0-12 10-22 22-22h792l-372-371c-8-9-8-23 0-32l22-21c4-4 9-6 15-6 6 0 12 2 16 6l444 444c4 5 6 10 6 16 0 0 0 0 0 1 0 0 0 0 0 0z" horiz-adv-x="1000" />

<glyph glyph-name="search-1" unicode="&#xe829;" d="M988-79l-285 285c56 68 89 154 89 248 0 218-178 396-396 396s-396-178-396-396 178-396 396-396c94 0 181 34 249 89l284-285c8-8 19-12 29-12s22 4 30 12c16 16 16 43 0 59z m-592 221c-172 0-313 140-313 312s141 313 313 313 312-140 312-313-140-312-312-312z" horiz-adv-x="1000" />

<glyph glyph-name="bg" unicode="&#xe82a;" d="M979 400c-21 125-85 244-183 325-137 112-287 125-441 54-144-66-261-189-317-338-34-91-44-198 3-283 20-37 50-68 82-96 200-172 516-265 741-96 124 94 139 289 115 434z" horiz-adv-x="1000" />

<glyph glyph-name="login-1" unicode="&#xe82b;" d="M257-72h-138c-17 0-27 9-32 15-7 10-10 22-8 34 41 195 213 337 411 342 3 0 7 0 10 0 3 0 7 0 10 0 49-1 96-10 141-27 20-8 43 2 50 23 8 20-2 42-22 50-7 2-13 5-20 7 65 48 107 126 107 212 0 147-119 266-266 266-146 0-266-119-266-266 0-87 42-164 107-212-59-20-115-50-164-90-89-74-151-176-174-289-8-35 1-71 24-99 22-28 56-44 92-44h138c21 0 39 17 39 39 0 22-18 39-39 39z m56 656c0 104 84 188 187 188s188-84 188-188c0-100-80-182-179-187-3 0-6 0-9 0-3 0-6 0-9 0-99 5-178 87-178 187z m657-407c-17 37-54 62-96 62h-122c0 0 0 0 0 0-44 0-82-26-98-66-2-6-4-12-7-20h-256c-10 0-20-4-28-12l-67-69c-15-15-14-40 0-55l69-69c7-8 17-12 28-12h127c21 0 39 17 39 39 0 22-18 39-39 39h-111l-30 31 29 30h268c18 0 34 12 38 29 4 13 7 26 13 41 4 9 14 16 25 16 0 0 0 0 0 0h122c11 0 21-6 25-16 10-23 23-60 23-99 0-41-12-78-23-102-4-10-14-16-25-16 0 0 0 0 0 0h-123c-11 0-21 7-25 17-5 11-9 24-12 39-5 21-26 34-47 29-21-5-34-26-29-47 4-19 10-36 16-50 16-40 54-66 97-66h123c0 0 0 0 1 0 41 0 79 25 96 63 13 31 29 79 29 133 0 53-16 101-30 131z" horiz-adv-x="1000" />

<glyph glyph-name="shopping-bag-3" unicode="&#xe82c;" d="M883 616h-119c-16 131-128 234-264 234s-248-103-264-234h-119c-21 0-39-18-39-39v-688c0-22 18-39 39-39h766c21 0 39 17 39 39v688c0 21-18 39-39 39z m-383 156c93 0 170-68 185-156h-370c15 88 92 156 185 156z m344-844h-688v610h78v-118c0-21 18-39 39-39s40 18 40 39v118h375v-118c0-21 17-39 39-39s39 18 39 39v118h78z" horiz-adv-x="1000" />

<glyph glyph-name="next-2" unicode="&#xe82d;" d="M593 725l-39-44 342-302h-896v-58h896l-342-302 39-44 407 360v30l-407 360z" horiz-adv-x="1000" />

<glyph glyph-name="arrow" unicode="&#xe82e;" d="M989 225c0 0-363-396-606-217-243 178 394 217 394 217 0 0-770-70-777 83-7 153 811 45 811 45 0 0-594 166-486 345 108 178 767-269 664-473z" horiz-adv-x="1000" />

<glyph glyph-name="advantages_05" unicode="&#xe82f;" d="M884 641c-64 112-207 145-322 104-1 31-4 62-10 93-1 7-8 11-14 11-38 2-77 3-115-9-12-3-17-17-11-28 14-26 31-53 52-77-111-2-280 39-347-67-80-128-50-279-17-416 31-126 79-292 186-376 84-66 184 5 215 92 48-85 129-147 222-77 101 77 144 229 177 344 39 136 58 278-16 406z m-427 169c23 5 46 7 69 9 8-36 8-75 3-112-11 14-22 32-30 43-15 19-29 39-42 60z m395-540c-24-95-58-190-109-274-72-118-153-82-233 7-2 2-4 3-6 3-7 8-19 11-28 2-35-36-54-90-105-107-48-15-92 51-113 82-63 94-97 210-123 319-27 111-49 255 28 351 37 46 111 38 163 37 55-2 109 6 162 22 9-9 20-16 30-22-29 0-78-5-86-36 0-4 1-8 4-10 21-12 50 0 73 0 16 1 33-2 48-6 19-5 32-20 50-26 12-3 21 8 19 19-5 30-37 47-68 54 2 8 2 17 3 25 120 9 223 4 289-114 55-100 29-222 2-326z m-275 216c9-31 59-153 100-208 26-36 70-70 116-102m-280 311c8-32 52-158 93-222 26-41 71-86 118-130m-254 319c6-31 45-161 84-233 25-45 70-102 118-158m-269 370c6-31 45-160 84-232 25-46 70-102 118-159m-241 318c5-27 39-139 73-201 21-39 60-89 102-137m77 489c8-22 51-110 87-157 22-29 61-64 102-98m-490 32c5-23 36-116 66-167 19-32 53-72 89-112m-170 196c3-17 25-91 47-131 14-26 40-58 67-90m-176 202c4-17 26-90 48-131 14-26 39-58 67-90m306 606c4-17 26-90 48-131 14-26 40-58 67-90" horiz-adv-x="1000" />

<glyph glyph-name="advantages_02" unicode="&#xe830;" d="M894 631c-27 196-214 197-377 211-139 13-374 34-398-155-11-91 5-181 3-272-3-161-4-321-19-482-2-13 17-16 23-6 91-97 594-76 687-73 4-2 9-2 13 0 0 0 0 0 0 0 28 0 28 44 0 44-4 0-7 0-11 0-9 12-16 27-19 43-6 31 18 38 43 45 9-2 19 1 21 14 19 128 17 257 23 386 4 81 22 164 11 245z m-125-733c-129 1-258 4-387 8-75 2-331 5-168 129 161 122 376-29 556-39-8-12-14-26-15-41-2-20 4-40 14-57z m55 137c-116 49-276 62-397 75-101 10-208-3-275-77 22 135 13 276 15 410 1 62-8 124-8 186-1 53 14 90 37 116-27-217-18-444-1-661 1-8 13-8 13 0 4 227 3 453 9 679 53 38 135 41 213 40 95-1 190-14 283-29 114-18 139-108 140-207 2-173-7-360-29-532z m-410 429c-17 38-40 82-80 99-41 17-64-31-68-63-5-41-1-93 15-133 5-14 30-14 29 4-1 6-2 26-3 50 9 1 24-1 35-1 13-1 31-6 44-2 1 0 1 0 1 1 1-3 3-6 4-9 2-5 3-12 6-17 3-5 3-8 3-3 0-3 2-6 5-9 0 0 0 0 0-1 6-6 19-7 25 0 19 22-7 64-16 84z m-76-9c-10 0-21 0-32-2 0 39 4 76 19 67 21-11 35-41 46-64-11 1-23-1-33-1z m375 27c-8 6-18 10-27 11 1 5 2 11 2 17 2 35-22 72-57 81-29 7-54-8-68-31-7-2-12-7-13-16 0-6 0-13 0-19-5-33 0-69 8-103 2-14 5-28 9-42 5-19 23-21 35-12 14-28 50-42 79-32 30 9 48 39 55 68 7 28 1 60-23 78z m-102 63c17 6 27-12 30-25 5-16-1-28-12-36-11-4-21-9-30-14-1-1-3-2-4-3-5 35-5 69 16 78z m79-133c-2-11-10-27-21-31-16-7-32 11-46 16-4 2-8 1-12-1-2 9-5 20-8 34 4-2 9-3 14-2 12 3 22 8 31 14 26 8 51 8 42-30z m-139-139c-11-11-18-20-30-27-4-3-5-3-13-5 0 0 0 0 0 0-1 0-1 0-3 0-2 0-4 0-7 0 8-1-12 4-5 1-2 1-4 2-6 4 0 0-2 1-3 2-3 2-6 5-8 8-1 1-2 3-3 3-1 2-2 4-3 6-1 1-2 3-2 4-1 2-1 3-2 5 0 2-1 4-1 7 0 0 0 0 0 0 0 0 0 1-1 2 0 2 0 4 0 6 0 1 0 1 0 2 0 0 0 0 0 0 1 2 1 4 2 6 0 0 0 0 0 0 0 0 0 0 1 1 0 1 1 1 1 2 0 0 0 0 0 0 1 1 3 3 4 4 0 1 0 0 1 1 0 0 0 0 2 1 1 0 2 1 3 1 0 0 0 0 0 1 13 4 25 4 40 3 20-1 22 28 4 34-32 10-72 9-93-21-18-24-13-55-2-80 11-24 36-45 63-50 39-6 78 18 98 51 14 23-18 47-37 28z m-231-223c0-10-10-50-30-70-13-13-40-27-70-40m153 116c1-10-4-51-21-73-11-15-37-32-65-49m130 116c2-10 3-51-11-75-9-16-32-37-57-57m128 132c2-10 3-51-11-75-9-16-32-37-57-57m118 114c3-8 3-44-9-65-8-14-27-31-49-49m105 96c2-7 3-37-8-55-6-11-23-26-41-41m94 75c2-6 2-29-6-43-5-9-18-21-32-32m94 75c1-6 2-29-6-43-5-9-18-21-33-32" horiz-adv-x="1000" />

<glyph glyph-name="testimonial_quote" unicode="&#xe831;" d="M602 317c4 5 10 9 17 11 7 1 14 1 20-2 8-4 15-9 19-16 5-7 7-15 6-22 0-23-13-63-43-69-29-5-60 49-55 76 5 27 36 65 73 49 8-4 15-9 19-15 5-7 8-14 9-22 1-7 0-15-3-22-3-7-8-14-15-19-7-4-15-7-24-7-9 0-17 2-25 5-7 4-13 9-18 16-4 7-5 14-5 22 7 42 85 31 69-9-17-40-41-30-51-4-10 25-5 17 10 21l18-13h-25c1 4 2 7 4 9 2 3 4 6 7 8 3 2 6 3 10 4 3 1 7 1 10 1l-8 7c5-16 5-34 0-50-2-5-7-9-12-11-5-3-11-5-17-5-6 0-12 2-17 5-6 2-10 6-12 11-17 25-24 54-22 82-6 27-2 54 9 79 12 26 31 47 57 63-102-23-103-130-84-203 0-29 28-62 69-55 41 7 51 53 44 85 0 0-49-4-51-24 0-4 0-7 2-11 1-3 3-7 6-9 3-3 7-5 11-7 4-1 8-1 12-1 4 1 7 3 10 5 3 2 5 5 7 8 2 3 2 7 3 10 0 4-1 7-2 10-2 3-4 6-7 9-2 2-6 4-9 5-4 2-7 3-11 3-4 0-8-1-12-2-47-18-6-77 38-60 11 3 20 9 27 17 6 8 9 18 7 28-1 10-6 19-15 26-8 6-19 10-31 10-11 2-22 0-32-5-10-4-18-11-24-20-5-9-6-19-4-29 1-9 7-18 15-25 8-8 19-13 31-15 12-3 25-2 36 2 12 3 22 9 30 18 8 8 12 18 14 29 2 10 0 21-5 31-5 10-13 18-23 24-11 6-23 9-35 9-13 0-25-3-35-9-13-8-24-18-31-30-8-11-13-24-14-38-2-13 0-27 5-40 6-12 14-24 25-34 57-41 113 30 113 76 2 12-1 24-9 35-8 10-20 18-34 21-5 2-10 2-16 2-5-1-10-2-15-5-5-2-9-5-12-9-3-4-5-9-6-13l7-2z m-240 5c27 57 103 0 114-39 2-6 2-12 1-18-2-6-4-11-8-16-4-5-9-8-15-11-6-2-12-3-19-3-10 2-21 5-30 12-9 6-16 14-21 23-4 9-5 19-4 28 1 10 5 19 11 26 7 7 15 13 24 16 10 4 20 4 29 3 50-16 29-95-24-77-22 8-36 37-15 53 4 3 9 5 14 5 5 0 9-2 13-5 9 0 11-13 0-24-10-12-7 0 0 0 8 0 0-26-12-29-8-2-17-2-25 0-7 1-14 3-19 6-6 3-12 7-16 13-10 17-16 35-19 55-2 19 0 39 6 58 9 30 39 111 84 94-29 20-60 0-80-23-25-34-39-74-40-115-1-18 2-37 9-54 7-17 18-33 31-46 11-9 25-14 39-16 15-2 29 1 42 7 7 3 12 7 17 11 5 5 8 11 11 17 2 6 3 13 2 19 0 7-2 13-6 19-12 18-49 21-55 0-6-22 21-47 39-29 3 3 4 8 4 13 0 4-1 9-4 12-3 4-7 7-12 8-4 2-9 1-14 0-22-10-21-41 0-41 6 0 12 1 17 3 5 2 10 5 14 10 3 4 6 9 7 15 1 5 0 11-2 16-4 10-12 19-23 23-11 5-23 5-34 2-6-5-11-10-15-16-4-6-6-13-7-20-1-7 0-15 2-21 3-7 6-13 11-19 9-12 22-21 37-24 16-3 31 0 45 7 13 8 22 21 26 35 4 15 2 30-5 43-6 14-17 25-30 32-13 7-29 10-44 7-16-3-30-10-40-21-11-12-17-26-19-41-1-18 3-35 13-50 10-15 25-26 43-31 8-4 17-5 25-5 9 0 18 2 26 6 8 3 14 9 20 15 6 7 9 15 12 23 10 62-112 145-137 62l6-3z" horiz-adv-x="1000" />

<glyph glyph-name="services_03" unicode="&#xe832;" d="M914 642c-19 14-44 15-67 17-27 2-54 4-82 5-27 2-55 3-82 5-20 0-46 5-64-7-33-27-2-70 34-69-4-8-7-18-8-27-1-10 0-20 4-29-202 191-305 25-484-95-16-15-100-60-88-81-3-4-6-8-7-12-2-4-2-9-2-13 1-5 2-9 4-13 3-4 6-8 9-10 29-22 62 1 85 19-4-82 1-164 1-245 0-25-5-54 7-77-1-1-2-3-2-5-104 54-133-96 3-88 169 0 337 1 505-9 34-2 81-13 112 5 51 31 17 95-35 96-4 93 26 182 54 269 8-3 17-3 25-1 8 1 16 5 22 9 25 19 22 63-13 66-2 0-5-1-7-3-2-1-4-3-5-6-1-2-1-5-1-7 1-3 2-5 4-7 11-12-2-20-14-20-150 28-231 279-391 220-93-39-175-103-256-162-21-15-42-39-70-39-12 1-24 15-11 25 1 1 1 2 2 3 0 1 0 2 0 4 67 37 125 91 189 134 58 39 112 97 184 104 69 4 131-58 178-100 41-37 79-76 118-115 14-13 52-63 61-23 24-7 26 44 30 59 7 35 12 69 17 104 13 66-15 75-73 77-37 5-75 6-112 6-1 0-3 0-4-1-1-2-2-3-2-4 0-2 0-3 1-5 1-1 2-2 3-2 47-10 95-17 143-21 14-2 24-4 25-20-3-60-25-118-36-177-48 52-100 102-154 148 6 14 9 28 11 43 1 11 7 25-3 33 0 1-1 2-1 3-1 1-2 2-4 3-12 4-32 9-35 24-4 15 15 16 25 16 33 0 67-3 99-5 47-5 96-1 140-15 16-8 21-31-1-33-2 0-3-1-4-2-2-1-2-2-3-3 0-2 0-4 0-5 1-2 2-3 3-4 4-2 8-3 12-3 4 0 8 0 12 2 3 1 7 3 9 6 3 3 5 7 6 11 3 8 3 17 0 26-3 8-8 16-16 21v0z m-169-702c-172 11-344 11-516 2-37 1-80-17-114 2-19 12-25 39 0 48 17 7 35-1 53-1 1 0 3 0 4 1 1 1 2 2 3 3 1-1 2-2 3-3 2 0 3 0 5 0 89 8 178-3 267-13 78-7 158-18 235 2 13-6 28-9 43-9 14 1 36 5 48-7 21-22-17-26-31-25l0 0z m-368 537c86 60 146 50 215-27 62-63 120-134 205-168-49-83-64-178-70-272-7-1-14-1-21-1-1 1-3 3-5 4-2 1-4 2-6 2-42-5-84-16-127-13-127 0-254 38-380 14 10 50-1 103 1 154-2 57 2 117-8 173 63 48 129 92 196 134v0z m-10-341c19-18 44-45 71-46-3-43 78-10 96 2 51 33 105 92 85 157-4 15-13 28-25 38-12 11-26 17-42 19-15 3-31 1-45-6-14-6-27-16-35-29-8-12 10-26 19-15 9 10 21 17 34 20 14 2 27-1 39-8 12-7 20-18 24-31 4-13 3-27-2-39-22-57-81-81-135-95 2 16-20 24-31 33-35 25-62 60-78 100-6 15-13 31-6 46 18 26 62 30 87 14 13-8 16-22 26-32 2-1 3-2 5-3 2 0 4 0 6 0 1 1 3 2 4 3 2 1 3 3 3 5 7 97-285 85-100-133v0z m398 546c38-12 98 24 95 67 0 6-3 13-6 18-4 5-10 10-16 12-6 3-13 4-19 3-7-1-13-4-18-8-6 7-14 12-23 14-10 2-19 1-27-4-9-4-16-12-20-20-4-9-6-19-3-29 2-9 7-18 14-24 8-7 17-11 27-11-10-1-14-14-4-18z m-7 79l0-1c0 0 0 1 0 1h0z m18-39c-32 11-22 66 8 38 4-6 11-11 17-6 1 0 2 1 3 1 1 0 2 1 3 2 2 2 4 3 6 4 2 1 5 2 8 2 2 0 5-1 7-2 2-2 4-3 6-5 14-27-31-48-52-52 1 1 2 3 2 5 1 2 0 4 0 6-1 1-2 3-3 4-1 2-3 3-5 3h0z m-362-462c5-9 27-47 45-67 11-13 30-28 50-42m-70 109c5-9 27-47 45-67 11-13 30-28 50-42m-132 72c4-8 23-40 39-56 10-10 26-22 43-34m-7 115c4-8 24-40 39-56 10-10 26-22 43-34m-172 45c3-6 18-31 30-44 7-9 19-18 32-28m66 129c3-6 17-31 29-44 8-8 20-18 33-27m-389 256c3-4 17-18 28-25 8-4 20-8 33-12m-74 29c3-4 15-19 27-27 7-5 20-10 33-15m-97 16c2-3 12-19 23-27 7-6 20-12 34-19m-70 9c1-3 10-14 18-20 6-4 16-9 27-14m-70 21c1-3 10-14 18-20 6-4 16-9 26-14m82 135c2-3 14-13 24-19 6-3 17-8 29-12m-16 43c1-2 8-11 14-15 4-3 11-7 19-11m-20 51c1-3 11-15 20-22 7-4 18-10 30-15m138 138c1-5 6-24 12-36 5-7 13-17 23-26m-85 37c2-4 15-19 27-26 7-5 19-11 33-16m-97 29c1-3 12-19 23-27 7-6 20-12 33-19m-82 21c2-2 10-14 18-20 6-4 16-9 27-14m-82 9c1-3 9-14 18-20 5-4 15-9 26-14m161 109c-1-3 0-19 2-30 2-7 6-18 11-29m34 34c-1-2-5-11-6-19-1-5 0-13 1-22m23 37c-2-3-8-17-9-29 0-7 1-20 2-33m142-45c-2-3-12-21-15-34-2-8-3-21-3-35m7 79c-3-3-14-20-18-33-3-8-4-22-5-36m1 98c-4-3-15-18-20-31-3-8-6-22-9-37m-11 82c-2-2-11-13-14-23-2-6-4-17-6-29m1 73c-3-2-11-13-14-23-3-7-5-18-6-30m126-52c-1-3-8-17-10-29-2-7-3-19-4-31m37 27c-2-1-8-10-11-17-2-5-3-13-5-21m44 33c-3-2-12-14-16-26-2-7-4-19-6-33m85 14c-2-2-8-11-10-19-2-6-3-15-5-25m-23 68c-2-2-8-11-10-19-2-5-4-15-5-24m-573-313c0-4 2-25 6-37 2-8 8-18 14-29m-31 67c-1-4 0-24 3-37 2-8 7-20 13-33m-50 73c-1-4-2-23 1-37 2-8 6-21 11-35m-37 50c-1-3-1-17 1-27 2-7 6-17 10-27m-32 59c0-3-1-17 2-27 1-6 5-17 9-27m110 57c0-3 3-19 6-29 2-7 7-17 12-27m10 43c0-2 0-13 1-20 1-5 4-12 7-20m11 53c0-3 0-19 2-30 2-8 6-19 11-31m50 45c-1-3-1-17 1-27 2-6 5-17 10-27m-45 57c-1-3-1-17 1-27 2-7 5-17 10-27m147 65c0-4 1-21 5-31 3-7 8-16 14-25m-31 57c0-4 1-21 4-32 2-7 7-17 13-27m-51 61c0-3-1-19 2-31 2-7 6-18 11-30m-37 42c-1-2-1-14 1-23 2-5 6-14 10-23m-32 51c-1-3-1-14 2-23 1-6 5-14 9-23m110 49c0-3 2-16 6-25 2-6 7-14 12-23m10 37c0-2 0-11 1-18 1-4 4-10 6-17m12 45c0-2 0-15 2-25 2-6 6-16 11-26m49 38c0-3 0-14 2-23 2-6 5-14 10-23m-46 48c0-2 0-14 2-23 2-5 5-14 10-23m51 58c0-3 2-16 6-25 2-6 7-14 12-23m10 37c0-2 0-11 1-18 1-4 4-10 6-17m12 45c0-2 0-15 2-25 2-6 6-16 11-26m50 38c-1-3-1-14 1-23 2-6 5-14 10-23m-46 48c0-2 0-14 2-23 2-5 5-14 10-23" horiz-adv-x="1000" />

<glyph glyph-name="services_01" unicode="&#xe833;" d="M969 350c-24 621-914 621-938 0 26-622 912-621 938 0z m-727-348l-3-3c-13 10-25 20-36 31 8 5 16 12 23 19 13-12 27-23 41-33-9-3-18-7-25-14z m-117 348c17 421 526 485 696 196 148-245-29-582-321-584-207 0-375 182-375 388v0z m188-383l-9-8c-17 9-33 18-49 29 6 6 22 13 18 24 19-12 38-23 59-31-7-4-14-8-19-14v0z m58-32c0-1-1-2-2-2-16 5-32 11-48 18 8 7 24 13 21 25 18-7 36-13 54-17-8-8-17-16-25-24v0z m79-11c-3-2-5-5-7-7-19 2-37 6-55 10 10 9 21 17 31 27 18-4 37-6 56-7-8-8-17-15-25-23v0z m83-8c-1 0-1-1-2-2-20-2-41-2-61 0 9 9 29 18 28 32 27 0 53 2 79 7-17-9-32-22-44-37z m23 0c10 9 20 16 31 24 5 4 14 10 7 16 31 7 61 18 90 32-17-15-34-31-49-48 0-1-1-1-1-2 0 0 0-1 0-1 0-1 0-1 1-1 0-1 0-1 1-2-26-8-53-14-80-18v0z m363 308c-5-3-68-64-49-59 13 11 26 21 39 31-7-16-10-36-26-46-21-20-40-43-55-68-2-2 1-4 3-2 13 13 27 25 39 38-33-54-78-99-131-134 19 20 39 39 57 59 2 2 0 6-3 4-27-20-51-44-70-73-25-15-52-27-79-37 25 19 48 41 68 66 46 27 86 63 117 107 31 43 53 92 64 144 1 0 1 0 1 0 0-1 1-1 1-1 0 0 1 0 1 0 0 0 1 1 1 1 12 9 24 17 35 27-3-20-8-39-13-57v0z m19 126c0-15-1-31-3-47-14-13-27-29-40-43 6 27 9 55 11 83 9 9 20 17 30 24 1-5 1-11 2-17h0z m-3 38c-11-6-21-14-29-23-1 17-2 34-5 51 8 7 17 13 27 18 3-15 5-30 7-46l0 0z m-11 62c-9-4-19-9-27-16-3 17-8 35-15 52 9 7 17 13 26 19 7-18 12-36 16-55h0z m-46 122c9-16 17-32 24-50-9-6-18-13-26-20-8 18-17 35-27 52 10 5 20 11 29 18h0z m-41 59c12-14 22-28 32-43-11-5-21-11-31-18-10 15-21 30-34 43 11 6 23 12 33 18h0z m-53 54c15-12 29-25 42-40-12-5-24-11-34-19-13 13-27 25-42 36 11 8 23 16 34 23h0z m-13 11c-11-8-23-16-34-24-19 12-38 24-59 33 14 8 28 16 42 24 18-10 35-21 51-33h0z m-136 69c23-7 46-16 67-26-14-8-26-17-37-28-26 11-52 19-79 25 17 9 33 19 49 29v0z m-81 17c21-2 42-6 63-11-16-10-31-21-45-32-23 4-47 6-71 6 18 12 36 24 53 37z m-87 2c20 2 40 2 61 1-18-13-35-26-52-41-24-1-48-4-71-9 21 16 42 32 62 49v0z m-99-18c24 8 49 13 74 16-23-18-46-36-67-55-44-13-86-34-123-61 36 36 78 66 116 100v0z m-290-308c3 5 77 88 53 79-17-17-33-35-47-54 24 83 74 157 142 211-39-50-83-97-118-150 0 0 0-1 0-1 0 0 0-1 1-1 0 0 0 0 0 0 1 0 1 0 1 0 45 45 82 98 123 147 22 33 60 48 95 63-46-37-88-80-124-126-54-58-90-130-104-208-13-9-24-19-35-31 3 24 7 48 13 71v0z m-15-108c0 6 0 12 1 18 11 10 22 21 33 32-3-22-4-45-2-68-12-2-23-20-30-30-2 16-2 32-2 48v0z m18-126c-6 21-11 43-14 65 11 8 21 17 29 27 3-21 6-41 11-62-10-9-18-19-26-30v0z m25-65c-7 15-13 30-18 45 8 9 16 19 24 29 6-18 12-37 20-54-9-5-18-12-26-20v0z m43-69c-13 17-24 34-33 51 8 8 16 14 24 21 9-19 20-37 32-54-8-5-16-11-23-18v0z m18-7c5 3 11 7 16 11 10-13 21-25 33-37-8-5-16-11-24-17-11 11-23 24-33 37l8 6z m286 327c-41-54 18-130 79-92 37-48 78-92 123-133-15-1-34 1-45-11-1-1-1-1-1-2-1-1-1-2 0-3 0-1 0-2 0-2 1-1 2-2 2-2 20-10 45-5 67-7 1-2 3-3 5-4 2 0 4 0 6 0 3 0 5 1 6 3 2 1 3 3 4 4 1 1 2 2 3 3 1 1 1 2 1 3 1 2 1 3 0 4 0 1-1 3-1 4 2 26 3 52 2 79 0 3-1 5-3 7-2 2-5 4-7 4-22 1-15-43-18-58-44 40-84 85-127 126 22 24 27 64 2 87-5 4-12 7-19 7-2 0-3-1-4-2-2-1-2-2-3-4 0-1 0-3 0-4 1-2 2-3 3-4 7-3 13-9 15-16 3-7 3-15 1-22-10-28-46-59-71-28-22 23 5 78 39 64 7-3 14 5 8 10-3 3-6 5-9 7 2 30 2 59 0 89 8-7 14-17 25-19 2-1 4-1 6 0 2 0 3 1 5 3 1 1 2 3 2 4 1 2 1 4 0 6-6 18-25 30-41 40-8 16-22-5-29-12-11-13-22-27-31-42 2-23 32 18 39 22-2-28-3-57 0-86-7-1-14-4-19-8-6-4-11-9-15-15v0z m7 247c16 3 75-7 68 19 0 3-2 5-4 7-3 2-5 2-8 2-19 0-38-2-56-4-3 0-6-2-8-4-3-2-4-5-4-8 0-3 1-6 4-8 2-2 5-4 8-4v0z m351-312c2-3 4-4 7-5 29-9 18 57 11 70-1 2-3 3-4 4-2 1-4 1-6 1-2 0-4-1-5-2-2-1-3-3-3-5-2-14-3-27-2-41-2-7-1-15 2-22v0z m-279-310c-19-1-38-5-55-13-21-26 45-13 56-15 36 1 33 31-1 28v0z m-344 308c-1 10 0 21-2 31 0 2-1 4-2 6-1 1-3 2-5 2-2 1-4 0-5-1-2-1-3-3-4-4-2-12-4-23-3-35 2-12 0-28 11-35 2 0 3-1 5 0 2 0 3 1 4 3 7 7 1 22 1 33z m32 158c-5 0-9-2-12-6-3-3-5-7-5-12 0-4 2-9 5-12 3-3 7-5 12-5 4 0 9 2 12 5 3 3 5 8 5 12 0 5-2 9-5 12-3 4-8 6-12 6z m79 78c15-16 37 10 20 23-3 2-7 3-11 3-4-1-7-3-10-5-2-3-4-7-4-11 0-4 2-8 5-10z m308 36c3-3 7-4 11-4 4 0 8 1 11 4 3 3 4 7 4 11 0 4-1 8-4 11-3 3-7 4-11 4-4 0-8-1-11-4-3-3-4-7-4-11 0-4 1-8 4-11v0z m110-81c2-1 4-3 7-3 2-1 5-1 7 0 2 1 5 2 6 4 2 2 3 4 4 7 0 2 0 5-1 7-1 2-2 4-4 6-2 2-4 3-7 3-2 1-5 0-7-1-3-1-4-2-6-4-1-2-2-4-3-6 0-2 0-5 1-7 0-2 1-4 3-6v0z m72-298c3-3 6-4 10-4 4 0 7 1 10 4 3 3 4 6 4 10 0 4-1 8-4 10-2 3-6 4-10 4-4 0-7-1-10-4-3-3-4-6-4-10 0-4 1-8 4-10z m-85-122c1-3 3-6 6-8 3-1 7-2 10-1 3 1 6 3 8 6 1 3 2 7 1 10-1 3-3 6-6 8-3 1-7 2-10 1-3-1-6-3-8-6-1-3-2-7-1-10v0z m-355-73c1-1 3-2 5-3 2-1 5-1 7-1 2 0 4 1 6 2 2 1 3 2 5 4 1 2 2 4 3 6 0 2 0 4 0 6-1 2-2 4-3 6-1 2-3 3-4 4-4 2-8 3-11 2-4 0-7-2-10-5-2-3-3-7-3-11 1-4 2-7 5-10v0z m-95 116c3 3 4 6 4 10 1 3 0 7-2 10-2 3-5 5-8 6-4 1-7 1-11-1-22-10-1-41 17-25z" horiz-adv-x="1000" />

<glyph glyph-name="services_02" unicode="&#xe834;" d="M47 280c21-137 26-142 30-141 5 1 7 7-10 144-4 35-9 77-16 131-11 93-3 160 90 188 18 6 38 10 61 12 3 1 8 1 11 2 1-9 3-17 3-25 2-10 3-19 6-28 1-8 2-17 6-25 4-9 11-16 18-21 7-4 16-5 22-5 14 0 23 3 30 8 13 8 17 16 18 20 0 5-1 6-3 7-1 2-3 2-6 1-4-2-8-5-18-8-10-3-29-6-34 10-2 4-3 11-5 20-1 8-3 17-3 26-4 30-18 130 9 144 3 1 8 1 14-3 40-17 50-105 49-152 0-12-2-21-3-28-2-5-3-9-2-10 1-1 4 2 8 8 2 6 6 16 8 28 3 14 4 30 4 49 3 0 7 0 10 0 77 8 162 15 256 19 2-33 6-60 11-87 2-8 3-17 7-25 4-9 10-16 18-21 7-4 15-6 22-6 13 0 23 4 29 8 14 9 17 17 18 21 1 5-1 5-2 7-1 1-4 1-7 1-3-2-8-6-17-9-10-3-29-6-35 11-1 4-2 11-4 20-1 8-3 17-4 26-2 18-4 40-6 65 0 20-5 68 15 78 4 2 9 2 15-2 3-1 6-4 10-6 2-4 16-9 28-56 9-34 11-67 10-90 0-12-1-20-3-27-1-6-2-10-1-10 0-1 3 2 7 8 3 6 7 15 9 28 4 18 4 44 2 71 28 0 57 0 87-5 67-11 115-39 131-106 5-22 7-44 7-68 1-48 2-97 3-146 3-239 9-263-13-294-13-17-33-29-56-37-159-59-448-46-606-40-37 1-71 3-99 15-29 12-48 34-60 54-13 22-20 42-25 59-9 34-12 53-14 53-1 0 0-5 1-14 1-10 3-23 7-40 5-17 11-38 22-61 6-12 15-23 25-34 10-10 23-20 38-26 31-15 67-18 104-20 167-10 450-26 615 32 13 5 25 10 37 17 12 8 23 17 31 29 9 12 14 26 17 39 6 28 5 31 3 269-1 50-1 100-1 148-1 24-3 49-9 73-18 79-74 116-154 129-34 5-66 6-97 5-9 45-41 96-83 80-30-13-35-50-35-83-95-4-181-11-258-19-3 0-6-1-9-1-11 95-54 101-56 104-2 1-3 1-5 1l-5 1c-6 2-15 0-21-2-37-17-36-69-34-105 0-5 0-9 0-14-4-1-8-2-13-3-22-3-44-7-65-14-108-37-120-118-105-222 8-53 14-96 20-130v0z m105-171c1-3 4-4 6-6 2-1 4-1 6-2h6c6 1 12 4 18 8 7 3 14 8 19 14l10 8c16 13 33 31 48 41 2 1 3 2 5 3l3 2c1 0 1 0 1 0v-1c0 0 0 0 1-2 1-2 2-7 3-11 6-29 15-60 35-80 3-3 8-7 12-10l6-4c2-1 6-3 9-4 12-4 23-4 33-2 11 3 20 6 29 11 24 14 45 35 65 54 13 12 26 26 38 38 105 111 58 92 102 48 18-19 44-31 72-30 17 1 33 7 47 15 31 19 36 32 106 120 27 35 49 66 58 90 2 6 3 12 3 17 0 6-3 10-5 13-4 5-7 7-8 7-1-1 2-3 5-9 2-3 3-6 2-11 0-4-1-9-3-14-10-23-33-52-62-86-60-70-73-94-105-112-12-7-25-11-39-11-22 0-43 10-56 26-12 11-23 32-27 38l-6 7-2 1c0 0 0 1-1 1-10 4-26-20-97-93-37-37-85-89-120-94-7-2-15-1-20 0-2 1-2 1-4 2l-5 3c-3 3-6 5-8 7-15 16-22 46-27 68-3 15-5 18-8 25-2 3-4 6-8 9-7 5-16 4-22 0-97-70 6 9-77-58 0 0 0-1 0-1h-1c16 27 63 99 91 110 4 2 9 3 13 2 4 0 8-2 11-4 7-5 13-13 18-22 13-22 20-48 25-56 2-1 3-2 6-4 3-2 9-4 12-3 5 1 9 2 13 5 61 48 130 152 169 180 31 22 70 19 97-9 3-3 7-8 11-12 1-2 4-5 5-7 2-2 4-6 8-9 5-3 10-5 14-6 5 0 11 1 14 3 25 9 18 21 105 97 18 15 32 26 44 34 11 6 19 8 24 7 4-1 8-3 10-3 2-1 3 0 3 1 1 1 2 1 1 4-1 2-2 5-10 9-4 2-10 3-16 2-6 0-13-3-19-6-14-6-31-17-50-32-70-55-75-69-90-83-3-3-7-5-10-6-1-1-2-1-2-1 0 0-1 0-1 1 0 0-1 2-3 4-1 2-3 5-5 7-4 5-8 10-13 15-34 38-90 44-132 13-24-17-50-49-73-75-56-66-53-64-89-96l-1-1-1 2-5 8c-4 10-9 21-16 33-6 11-14 22-27 31-21 13-42 12-64-1-3-2-7-4-10-7-23-19-58-69-73-93-6-7-8-11-17-27-1-4-3-7-5-11l-2-5c-1-1-1-3-2-4-1-6-1-11 0-15 3-2 3-3 5-5v0z m136 154l-38-82m75 57l-37-82m62 44l-37-81m75 81l-38-112m150 237l-50-187m113 237l-50-187m112 187l-50-125m100 88l-50-125m100 137l-50-150m100 200l-50-187m88 212l-38-162m75 187l-37-137m-363-38l-50-187m-93 608c-5-1-25-10-36-20-7-6-16-17-25-29m56 66c-4-1-24-9-36-18-8-6-18-17-28-29m61-6c-4-2-19-10-28-19-6-5-14-15-23-25m50 0c-2 0-14-3-21-8-4-3-11-9-18-16m61 2c-4 0-20-5-31-13-6-5-16-15-27-25m432 140c-5-1-25-10-36-20-7-6-16-17-24-29m56 66c-5-1-25-9-37-18-8-6-18-17-28-29m61-6c-3-2-18-10-28-19-6-5-14-15-22-25m50 0c-3 0-14-3-21-8-5-3-11-9-18-16m60 2c-3 0-19-5-30-13-7-5-17-15-27-25" horiz-adv-x="1000" />

<glyph glyph-name="services_02-1" unicode="&#xe835;" d="M118 613c22 12 39 20 56 28 47 22 94 44 141 65 30 13 62 23 92 36 43 18 90 25 137 18 81-11 164-16 245-25 39-4 78-11 116-20 37-10 42-19 38-56-6-61-13-122-20-183-5-51-11-102-16-153-2-22-5-44-10-66-4-15-11-28-22-39-42-38-87-75-131-113-64-55-131-107-203-151-29-18-53-24-85-8-50 25-107 25-162 36-70 14-137 34-198 73-26 18-36 37-33 69 8 66 13 132 16 198 5 78 8 155 9 233 0 27 20 41 30 58z m246-103l0-1c-66 21-132 43-198 63-20 6-34-5-36-27-4-35-6-70-8-105-5-87-10-174-15-261-1-19 0-38 0-57 0-7 2-15 6-21 4-7 10-12 17-15 42-18 84-42 128-54 73-19 149-30 223-45 10-1 21-1 31 0 7 47 13 90 19 133 7 44 9 88 19 132 14 63 17 129 24 193 1 6-2 12-4 22-68 19-135 38-206 43v0z m212-5c131 55 275 136 299 168-16 12-35 15-54 17-70 7-140 15-211 19-47 4-93 3-140-1-82-10-159-38-233-75-15-7-32-14-43-35 124-52 256-63 382-93v0z m321 89l-7 2c-5-8-10-16-15-24-35-64-69-128-104-192-52-93-105-186-156-279-10-17-19-35-20-58 26 4 35 22 45 39 47 80 94 160 141 240 9 17 17 34 24 51 27 61 53 121 85 180 6 11 5 27 7 41v0z m-339-537c6 10 9 12 11 16 53 94 107 189 160 284 40 71 79 142 118 214 3 6 5 14 6 21-11-8-20-18-26-29-30-52-59-105-91-155-57-93-117-184-163-283-9-20-19-39-15-68v0z m132 64c41 23 51 35 69 71 22 44 45 89 66 134 19 42 36 85 54 128 2 7 3 14 4 22-16-19-29-41-38-65-17-43-38-84-62-124-32-54-62-110-93-166v0z m46 428c-18 0-31-6-38-21-6-14-15-26-22-39-24-40-48-80-71-120-14-26-16-45-11-75 48 87 101 167 142 255l0 0z m70 35l-8 6c-9-13-19-26-27-39-55-93-110-186-163-279-15-26-32-51-31-83 70 135 165 256 229 394v1z m-14-377l7-4c44 33 61 77 56 132l-63-128z m-141 294c-37-5-47-26-36-73 12 26 24 48 36 72l0 1z m-289 8c12-34 25-68 35-103 19-64 27-130 31-196 2-31-4-36-32-43-22 18-5 46-20 71-33 7-69 15-108 10-8-24-16-46-22-69-6-21-17-30-42-25 0 8-2 16 0 23 10 35 27 68 28 106 1 2 2 4 3 7 15 32 31 65 46 97 18 39 34 78 54 122h27l0 0z m-16-81c-27-45-54-80-55-132 29-7 56-16 88-9-3 47-8 92-33 141z" horiz-adv-x="1000" />

<glyph glyph-name="services_03-1" unicode="&#xe836;" d="M996 598c18 31-38 68-58 82-38 28-78 53-118 78 0 9-7 18-17 18-66 3-145-113-184-154-90-96-172-197-256-297-3-2-5-4-6-7-15-18-31-37-46-55-8 5-20 3-23-8-24-90-29-183-36-276-19 14-42 23-66 28 9 20 18 41 30 61 11 17-7 41-27 35-23-8-46-12-69-16 16 42 53 78 74 116 8 13 1 32-14 35-29 7-58 7-86 5 23 17 47 31 74 44 18 8 5 34-13 30-58-12-104-46-148-85-16-14-3-41 17-40 36 1 73 7 110 5-30-44-64-83-70-139-2-17 17-25 30-23 19 3 38 6 57 9-7-15-13-30-19-45-8-17 1-35 20-36 39-3 65-19 98-36 18-10 32 7 27 23 1 0 2 0 3 1 45 18 88 40 131 62 34 17 80 32 109 58 3-1 7-2 11-2 4-1 8 0 11 3 5-2 11-1 15 3 83 84 161 173 240 262 68 76 146 153 200 241 5 7 3 14-1 20z m-279 53c12-35 28-70 44-104-3 0-6 0-8 0-9 14-21 27-29 41-10 14-18 29-27 43 7 7 13 14 20 20z m16-224c1-3 3-6 4-8-8-13-16-25-23-34-1 0-1-1-1-1-4 3-10-2-8-7 0 0 1-1 1-1-7-7-14-15-23-23-1 0-2 1-2 2-5 7-18 3-14-6 1-2 2-5 3-7-24-19-51-32-71-17-59 46 84 151 145 191 1-2 2-4 3-6 19-21 11-51-2-78 0 1-1 1-1 1-4 8-15 1-11-6z m-47 194c8-14 15-28 23-42 6-11 13-24 20-35-10-3-21-7-33-13 1 11-9 23-15 31-6 11-14 22-22 32 9 9 18 18 27 27z m-67-69c10 12 21 22 32 33 6-11 11-23 16-35 5-9 8-21 16-26-11-7-22-15-34-23-4 8-10 15-15 22-6 8-12 17-18 25 1 2 2 3 3 4z m-12-14c5-7 10-14 14-22 6-8 11-17 18-24-11-9-21-18-30-27 0 0 0 1-1 1-4 5-8 10-12 16-5 8-10 17-15 26 9 10 17 20 26 30z m-37-42c5-12 11-23 17-34 2-4 5-9 9-12-9-11-17-22-24-33-1 1-1 2-2 2-4 6-7 13-11 19-5 9-10 19-15 28 9 10 18 20 26 30z m-36-42c5-13 10-26 16-38 3-6 6-13 12-16-7-13-11-27-13-40-14 22-27 45-37 69 7 8 15 17 22 25z m-117-387c-39-20-78-41-118-59 6 70 13 140 16 210 36-29 72-60 108-89 15-11 30-24 46-35-18-8-36-19-52-27z m121 37c-31 25-69 42-101 66-33 25-64 50-97 73 15 14 30 29 44 44 57-48 118-92 181-130 5-3 10-4 14-2-14-17-27-34-41-51z m54 66c1 7-1 14-9 19-62 36-121 76-181 116 14 15 29 32 44 48 10-24 22-47 33-70 7-14 18-42 38-40 7 0 12 12 4 15-5 2-11 14-14 18-7 10-13 20-20 31-11 18-20 38-33 55 7 8 14 16 21 25 24-48 49-95 76-140 9-15 27-55 49-67-3-3-6-6-8-10z m23 28c-8 7-21 27-25 32-14 19-28 40-41 60-23 35-43 71-66 106 7 7 13 14 19 21 11-36 33-70 51-101 12-20 24-40 36-59 6-11 11-23 23-29 7-4 14 1 15 9 2 13-9 30-21 44 9-1 17-1 26 1 4-5 7-11 11-16 4-6 8-14 13-21-14-16-27-31-41-47z m55 63c-3 3-5 6-7 8-5 6-9 12-14 18 14 6 28 14 41 24 3-3 5-6 7-9 1-2 3-3 5-4-11-13-22-25-32-37z m44 51c-2 4-5 7-8 11 0 0-1 0-1 0 7 7 14 13 20 19 3-2 7-4 11-5-7-8-15-16-22-25z m31 35c-1 2-2 3-3 3-2 1-4 3-6 5 3 4 7 7 10 11 5 6 10 13 15 21 3-3 7-6 12-7-10-11-19-22-28-33z m35 42c-1 6-5 10-9 14 12 22 21 46 23 70 7-13 15-23 25-30 2-1 4-1 5-1-14-18-29-35-44-53z m11 153c-21 40-41 81-62 121 3 3 6 6 9 9 0 0 0 0 0-1 9-13 22-25 37-36-2-2-3-4-2-7 12-29 26-57 39-85 12-22 23-49 39-69-6-7-12-14-18-21-1 30-29 62-42 89z m78-47c-12 20-27 39-39 59-13 21-24 44-35 67 12-9 23-16 33-23 16-13 52-47 81-58-14-15-27-30-40-45z m67 74c-6 6-15 10-23 15-20 12-40 25-59 39-30 20-65 54-99 65 16 15 32 31 48 46 26-24 55-44 83-66 23-18 64-43 80-70-10-9-20-19-30-29z" horiz-adv-x="1000" />

<glyph glyph-name="services_04" unicode="&#xe837;" d="M871 188c0 41 13 126-12 171 0 20-3 42-9 66-2 7-7 9-11 9-19 53-76 105-127 125-123 47-257 39-379-5-71 86-135 179-213 258-13 13-36-4-26-20 58-88 121-175 191-257-66-29-128-68-183-114-4-5-1-11 4-13-21-23-28-44-25-63-18-62-16-125-10-189 5-50 10-113 32-160 0-2 0-5 1-7 34-78 130-111 225-125 2 0 4-1 6-1 54-8 108-10 149-12 84-3 341-10 371 107 3 2 7 4 9 8 29 55 8 164 7 222z m-40 60c-10 0-21-1-32-3 13 9 24 19 32 30 0-9 0-18 0-27z m-522 260c24-26 48-52 73-76 0 0 0-1 0-1 5-26 26-53 49-64 37-17 64 9 77 41 9 22 6 48-16 61-11 6-24 7-37 4-8 4-15 7-24 8-11 2-21 1-29-3-15 15-30 31-44 47 60 18 122 29 187 30 85 2 171-27 234-85 89-82-54-139-121-146-106-12-490-50-515 95 0 3-1 4-3 6 55 32 111 61 169 83z m-190-133c57-151 560-101 660-56 21 9 36 20 46 32-10-64-56-97-114-114-10-1-19-3-27-6-1 0-2 0-3-1-76-13-167-5-236 1-88 7-340 23-326 144z m408-306c-5-1-15-1-20-6-4 15-9 30-13 46 17 14 63 2 80-1 14-2 30-6 46-7-4-12-8-23-12-34-23 2-55 2-81 2z m74-25c-5-13-9-26-13-39-21 3-41 0-62 3-5 14-10 27-14 41 3-1 6-2 8-3 3-1 5 2 5 5 11-1 21-2 31-3 11-1 30-6 45-4z m-56 90c-17 2-41 3-56-8-3 12-5 23-8 35 53 2 104-11 157-12-3-8-6-15-9-22-27 5-58 5-84 7z m0 50c-22 1-45 2-67-3-1 6-3 11-3 16 0 1-1 1-1 1 58-5 124-7 186 1-4-8-8-16-11-24-34 6-70 7-104 9z m-444 124c64-67 260-99 316-105 9-1 19-2 29-3-2-3-3-6-5-10-26 7-54 10-81 13-25 3-51 6-75-1-1 6-2 12-4 18-3 11-18 14-26 6 0 0 0 0 0 0-1 1-1 2-2 3-11 11-30 13-44 16-20 6-41 10-61 12-12 2-37 6-46-5-1 19-2 38-1 56z m299-163c-17 0-34 0-51 0-16 1-34 2-51-2-3 16-7 31-10 47 22 0 49-6 69-9 25-4 49-10 73-15-3-7-6-15-10-22-6 1-13 1-20 1z m11-25c-4-9-9-19-13-29 1 3-1 6-4 8-8 6-25 5-36 5-17 2-34 3-50 3-1 0-1-1-1-1-2 8-4 15-5 22 18 2 38-2 54-3 14-1 37-6 55-5z m-308 120c0 1 1 1 1 2 2 6 56-7 65-9 21-6 50-21 74-21-4-3-7-7-11-11 0 1-1 2-2 3-12 6-31 5-44 8-18 3-35 6-53 7-11 1-22-1-29-6 0 9-1 18-1 27z m3-43c12 17 87-11 114-12-4-6-8-11-11-16-1 0-1 1-2 1-24 6-54 2-78 0-6-1-13-2-19-6-1 11-3 22-4 33z m7-56c0 3 0 7-1 10 0 0 1 1 1 1 2 7 61 0 85-1-8-13-15-26-21-40 0 4-1 8-5 9-9 2-18 0-28 0-9 0-17-1-26-1-2 7-3 15-5 22z m25-132c-1 32-10 64-17 96 6 0 12 0 18 0 11 0 22-2 33 0 1 0 2 1 3 2-14-32-26-65-37-98z m7-31c32 72 61 146 113 206 21-92 38-184 56-276-66 11-130 31-169 70z m165 112c16-1 32-3 48-5 11-1 26-7 36-1 1 1 2 2 3 3-6-14-12-28-17-42-1 0-2 1-4 1-9-1-18-5-28-6-10 0-19 1-28 3-3 16-7 31-10 47z m13-64c16-4 34-6 49-1-11-29-22-58-32-87-5 29-11 59-17 88z m161-131c-33 0-78 2-125 7 29 85 62 169 97 251 6-88 47-179 79-259-19 0-36 0-51 1z m49 94c16-3 32-5 48-4-7-20-15-40-24-59-8 21-16 42-24 63z m45-95c43 88 61 185 102 273 6-11 12-22 18-33 0 0 0 0 0 0-10-1-8-17 2-16 2 0 4 0 6 0 30-59 55-120 60-185 0 0 1-1 1-2-53-28-124-36-189-37z m252 111c0-14-5-21-1-20 0 0 0 0 0 0-3-2-6-4-9-7-6-10-14-19-23-26-2 22-7 45-14 67 14-4 31-7 47-6 0-3 0-5 0-8z m0 31c-2 0-4 0-6-1-16-2-31 0-46 2-1 0-1 0-1 0-5 16-12 31-18 46 10 0 21 0 32-1 13 0 26-2 39-1 1-13 1-25 1-38 0-2-1-4-1-7z m0 67c-22 1-47-4-68-6-3 0-6-1-10-1-3 8-8 16-11 23 11 1 23 0 35 0 17 0 39-3 55 5 0-7-1-14-1-21z m1 39c-20 4-44-2-63-2-13-1-25-1-37-2-8 16-16 32-25 47 4 0 8 0 12 0 18 1 37 1 56 0 13 0 39-4 57 1 0-15 0-30 0-44z m-37 69c-24-1-48-1-72-3-4-1-11-1-17-1 12 3 25 6 37 10 7 0 15 0 23 1 20 0 44-2 66 2 0-3 0-5 0-8-9-1-27 0-37-1z m137 356c-1 0-1 1-1 2-3 5-6 7-11 9-3 6-25 28-31 34-18 19-38 35-58 52-51 44-108 83-166 119 1 6 2 12 2 17 0 9-5 15-12 18-3 8-7 15-14 21-18 14-41 13-61 5-19-9-34-28-37-49-2-21 18-63 44-56 1 1 2 1 3 2 14-9 31-11 47-4 7 3 13 8 17 14 60-47 121-92 177-144 17-17 58-82 89-70 13 5 18 17 12 30z" horiz-adv-x="1000" />

<glyph glyph-name="services_01-1" unicode="&#xe838;" d="M480 677c-1-1-1-1-2-2 1 0 1 0 1 1 3 3 6 5 1 1z m507 34c1 14-12 19-22 15-4 2-8 3-13 2-17-5-36-3-53-5-10-1-21-3-31-5-6 10-24 8-25-7 0 0 0-1 0-1-3-4-3-8-1-12-1-27-2-53-2-80-88 18-176 18-265 13 2 15 4 30 7 45 6 34-42 40-46 7-2-18-4-36-5-55-7 0-15-1-22-1 0 1 1 3 1 4 2 14 4 30-6 42-7 8-18 8-25 3 0-1-1-1-1-1l0 0c-1 0-1-1-2-2-2-2-4-3-5-4-2-4-4-10-5-13-2-11-3-22-5-33-85-7-171-14-256-9-4 0-7-1-9-2-2 41-6 82-13 122 11 7 10 22-3 27-23 9-52 3-77 2-24-2-49-4-72-11-8-2-11-10-9-16-5-57-9-115-13-173-5-3-7-12-1-16-5-89-8-180-5-270-4-2-4-8 0-11 4-93 14-185 35-274 1-8 7-10 13-8-2-7 1-14 9-16 22-6 45-7 68-4 14 1 26 3 35 13 6 0 11 3 11 11 0 44 2 89 5 134 1-1 3-1 5-1 140-5 280 2 421 9-1-8-2-15-4-22-6-23 29-39 41-17 6 13 8 27 9 41 10 0 19 1 29 1 0-11 1-21 2-32 3-19 34-28 37-5 2 13 4 26 6 39 12 0 23 1 35 1-1-7-2-14-3-21-6-30 39-42 45-13 2 12 3 23 4 35 10 0 20 1 30 1 3 0 6 1 9 2-2-52-7-104-15-156-1-8 5-14 11-16-15-8-10-35 9-34 5 0 9 1 14 2 36 7 76 3 111 15 2 1 4 2 5 4 8-3 17 1 18 11 11 249-22 497-11 745z m-940-308c30-11 63-21 93-21 0-9 0-19 0-28-1 1-1 2-2 2-15 10-37 11-54 16-13 3-25 6-37 9 0 7 0 15 0 22z m-2-95c8-4 16-9 24-13 18-8 38-19 58-18 8 1 12 11 4 16-16 8-35 12-52 19-11 5-23 11-33 18 0 11 0 21 0 32 11-3 22-6 33-9 18-5 38-14 57-11 2 0 3 1 4 1-1-32-1-65-1-98-31 10-63 16-94 23 0 14 0 27 0 40z m0-58c31-12 63-22 94-23 0-12 0-25 1-37-16 6-34 10-50 16-15 6-30 11-45 17 0 9 0 18 0 27z m1-83c0 12-1 24-1 35 13-5 27-10 40-16 17-7 36-16 55-16 1-12 1-25 1-38-4 1-9 3-11 4-12 2-24 6-36 10-16 6-32 13-48 21z m1-21c14-9 33-15 47-21 11-5 33-16 49-14 0-13 1-25 1-37-17 8-36 11-54 19-15 7-29 16-42 26-1 9-1 18-1 27z m16-152c-1 0-2-1-3-1 0 2 0 3 0 5-1 10-3 20-4 31 19-13 40-27 61-35-18-3-36-1-54 0z m34 32c-15 7-29 15-43 23-2 15-3 30-4 45 27-20 60-40 91-37 2 0 3 1 5 2 1-18 2-35 3-53-17 7-35 12-52 20z m44 377c-16 6-34 7-50 10-15 2-29 6-43 10 0 15 1 30 1 45 12-4 24-7 36-10 13-3 34-12 47-3 4 3 6 10 1 14-11 9-28 8-42 10-14 3-28 6-41 8 0 14 0 28 0 42 7-2 13-5 20-8 17-6 41-18 59-11 8 3 11 14 3 18-15 7-33 8-49 12-11 4-22 7-32 11 0 11 0 22 0 33 10-3 20-5 30-7 18-4 41-10 58-2 6 3 6 13 0 16-13 7-29 5-43 7-15 2-30 5-45 10 0 16 0 32-1 49 11-7 21-12 33-16 20-8 44-21 67-17-4-73-8-147-9-221z m10 239c-17 9-37 8-56 14-16 5-31 13-45 22 0 6-1 13-1 19 17-4 34-10 50-16 17-6 35-15 53-20 0-7-1-13-1-19z m2 46c-13 5-26 8-39 13-22 7-44 13-66 17 0 3 0 5 0 8 18 1 37 2 55 2 17 0 35-2 53-1-1-13-2-26-3-39z m763-408c-8 2-17 6-26 9 1 10 0 21 0 31 5-1 9-1 11-2 11-3 23-6 35-10 4-1 9-3 14-4 2-1 3-1 4-2 1-12 1-23 2-35-13 4-27 8-40 13z m40-32c0 0 0 0 0 0 1-16 2-32 3-48-11 3-22 6-32 10-14 5-26 12-39 19 1 14 1 29 2 43 6-2 12-4 18-7 13-6 33-19 48-17z m-22 80c-14 4-28 6-43 9 0 0 0 0-1 0 0 14 0 29 0 43 8-3 17-6 26-9 11-4 24-10 36-9 1-13 1-26 2-39-8 3-16 5-20 5z m-45 69c0 15 0 29-1 43 9-4 17-8 26-12 11-5 24-13 37-15 0-11 0-21 1-32-20 7-42 11-63 16z m31 47c-11 4-21 8-32 12-1 11-2 21-2 32 5-2 11-4 16-6 16-6 32-14 48-20 1-9 0-19 1-29-10 5-21 8-31 11z m-35 61c-1 13-1 26-2 39 9-3 18-7 27-11 11-5 26-14 40-16 0-12 0-23 0-34-20 10-43 15-65 22z m65 37c-6 1-11 3-17 4-16 6-31 12-47 17-1 0-3 0-4 0-1 17-3 33-4 49 10-3 20-6 30-9 12-3 30-11 43-6-1-19-1-37-1-55z m-63-330c9-5 18-10 27-15 13-7 30-15 46-18 1-20 2-41 3-61-1 0-1 0-2 0-15 6-30 12-45 19-11 5-22 10-33 16 2 19 3 39 4 59z m64 401c-11 5-27 5-38 7-12 2-24 5-36 8-1 13-2 27-3 41 7-3 14-6 21-10 14-6 26-12 39-18 6-3 11-6 17-9 0-6 0-13 0-19z m-70-475c11-6 21-13 32-19 13-7 33-21 51-26 1-15 2-30 3-46-10 4-20 6-30 10-22 7-42 16-62 26 2 18 4 36 6 55z m71 556c0 0 0 0 1 0-1-11-1-22-1-33-15 7-33 13-45 18-11 4-23 10-35 14 0 1 0 2 0 3 27 3 56 5 80-2z m-755-110c2-2 5-3 8-3 83-8 167-6 250-2-1-17-1-33 6-47 9-17 41-10 39 11-2 12-1 25 1 38 11 0 21 1 32 2 1-16 5-32 11-47 7-19 35-12 31 9-3 13-3 26-3 39 89 5 178 7 267-4 0-62 2-125 4-187-1 0-1 1-3 1-141 26-295 12-446-4 2 12 3 24-1 35-5 12-21 20-31 8-11-12-15-30-16-48-8-1-16-2-24-3 1 13 3 26 5 39 4 29-39 42-45 13-4-19-6-38-6-57-7 0-13-1-19-1 0 3 0 6 1 10 1 17 11 51-13 57-24 7-31-22-33-39-1-11-2-22-3-33-5 0-10 0-15-1 4 72 6 143 3 214z m649-409c-3 2-6 3-10 3-10 0-19 0-28 0-1 17-2 34-6 50-7 30-53 17-46-13 3-12 4-25 5-38-11 0-21-1-31-1 2 20 3 41 1 60-3 29-42 29-45 0-3-20-5-40-6-61-9 0-19-1-29-1-1 14-1 29 2 41 7 30-39 43-46 13-4-18-3-37-2-56-141-5-281-12-421-19-2 0-3-1-4-1 4 63 9 128 12 192 5 0 10 0 15-1 0-7-1-15-3-23-4-28 38-41 44-12 2 11 4 23 5 34 8 0 16 0 23 0 1-11 2-22 4-33 2-17 32-17 34 0 2 11 3 22 4 33 10 0 21 0 31 1 2-13 5-24 8-34 6-20 38-17 37 5-1 10-1 19-2 29 149 2 298 9 444 18 3 0 6 1 8 3 2-63 4-126 2-189z m6-204c2 2 3 3 4 6 2 12 5 24 7 36 6-3 11-7 17-10 0-1-1-1-1-2 0 0 0 1 0 1 0 0-1 1-1 0-2-2-3-5-4-8-1-2-2-4-4-6 0 0 1-1 1-1-1-2-1-4-2-6-1-2-1-5-2-7-5-1-10-2-15-3z m69 10c-17-2-35-4-53-7 1 5 3 10 5 15 4 4 6 9 9 13 6-3 12-6 19-9 7-3 17-8 27-11-3-1-5-1-7-1z m37 3c2 4 1 9-4 12-12 9-32 10-46 15-15 4-28 11-42 18 3 13 4 25 6 38 29-18 64-34 96-42 1-14 2-28 3-42-5 0-9 1-13 1z" horiz-adv-x="1000" />

<glyph glyph-name="avatar" unicode="&#xe83d;" d="M496 311c1 0 2 0 4 0 0 0 1 0 1 0 1 0 1 0 2 0 61 1 110 23 146 63 80 90 67 244 65 259-5 110-57 163-100 188-32 18-70 28-112 29h-1c0 0-1 0-1 0h-1c-23 0-68-4-112-28-43-25-96-78-101-189-2-15-15-169 65-259 36-40 85-62 145-63z m-155 317c0 0 0 1 0 2 7 148 112 164 157 164h1c1 0 1 0 2 0 56-1 151-24 157-164 0-1 0-2 1-2 0-2 14-142-52-217-26-29-60-43-106-44-1 0-1 0-1 0l0 0c-1 0-1 0-1 0-46 1-81 15-107 44-65 74-51 216-51 217z m584-572c0 0 0 0 0 0 0 2 0 4 0 5-1 41-4 137-94 168 0 0-1 0-2 1-93 23-171 77-172 78-12 9-30 6-39-7-9-13-5-30 7-39 4-2 86-60 189-86 49-17 54-69 55-116 0-2 0-4 1-5 0-19-1-48-5-64-33-19-165-85-365-85-199 0-331 66-365 85-3 16-5 45-4 64 0 2 0 3 0 5 1 47 7 99 55 116 103 27 185 84 189 86 13 9 16 27 7 39-9 13-27 16-39 7-1-1-78-54-172-78-1 0-2-1-2-1-90-31-93-127-94-167 0-2 0-4 0-5 0-1 0-1 0-1 0-11-1-66 10-94 2-5 6-10 11-13 6-4 155-99 404-99s398 95 405 99c4 3 8 8 10 13 11 28 11 83 10 94z" horiz-adv-x="1000" />

<glyph glyph-name="call" unicode="&#xe83e;" d="M974 79l-203 135c-25 17-60 11-79-13l-59-76c-7-10-21-13-32-7l-11 6c-37 21-84 46-177 139s-118 140-139 177l-6 11c-6 11-3 25 7 32l76 59c24 19 30 54 13 79l-135 203c-18 26-53 34-80 18l-84-51c-27-16-46-41-55-71-30-111-7-303 275-585 225-225 392-285 507-285 26 0 53 3 78 10 30 9 55 28 71 55l51 84c16 27 8 62-18 80z m-11-63l-51-84c-11-19-29-34-51-40-102-28-281-5-552 267s-295 450-267 552c7 22 21 40 40 51l85 51c11 7 26 4 34-8l73-110 62-92c7-11 5-26-6-34l-76-59c-23-18-29-50-15-75l6-11c21-39 48-88 144-185 97-96 146-123 185-144l11-6c25-14 57-8 75 15l58 76c9 11 24 13 35 6l202-135c12-8 15-23 8-35z m-396 667c156 0 283-127 283-283 0-9 7-17 17-17s16 8 16 17c0 175-142 316-316 317-10 0-17-8-17-17s7-17 17-17z m0-100c101 0 183-82 183-183 0-9 7-17 17-17 9 0 16 8 16 17 0 120-97 217-216 217-10 0-17-8-17-17s7-17 17-17z m0-100c46 0 83-37 83-83 0-9 7-17 17-17s16 8 16 17c0 64-52 117-116 117-10 0-17-8-17-17s7-17 17-17z" horiz-adv-x="1000" />

<glyph glyph-name="download" unicode="&#xe83f;" d="M943 196c-9 0-17-8-17-17v-296h-852v296c0 9-8 17-17 17s-16-8-16-17v-313c0-9 7-16 16-16h886c9 0 16 7 16 16v313c0 9-7 17-16 17z m-455-177c7-7 17-7 24 0 0 0 0 0 0 0l213 213c6 6 6 17-1 23-6 6-16 6-22 0l-186-185v764c0 9-7 16-16 16s-16-7-16-16v-764l-185 185c-7 6-17 6-24 0-6-7-6-17 0-23l213-213z" horiz-adv-x="1000" />

<glyph glyph-name="shopping-bag-2" unicode="&#xe840;" d="M865-117l-76 724c-1 15-14 26-29 26h-143v33c0 101-83 184-184 184-102 0-184-83-184-184v-33h-143c-15 0-28-11-30-26l-76-724c-1-9 2-17 8-23 5-6 13-10 22-10h806c8 0 16 4 22 10 6 6 8 14 7 23z m-557 783c0 69 56 125 125 125 69 0 124-56 124-125v-33h-249z m-245-757l70 665h116v-66c0-16 13-30 29-30s30 14 30 30v66h249v-66c0-16 14-30 30-30 17 0 30 14 30 30v66h116l70-665z m0 0" horiz-adv-x="1000" />

<glyph glyph-name="whatsapp" unicode="&#xe841;" d="M858 708c-92 92-213 142-343 142 0 0 0 0 0 0-64 0-126-12-186-37-59-24-111-60-157-105-91-92-142-213-142-343 0-77 19-154 54-222l-81-233c-6-17-2-35 10-47 9-8 20-13 32-13 5 0 10 1 15 3l233 81c68-35 145-54 222-54 130 0 251 51 343 142 92 92 142 214 142 343 0 130-50 251-142 343z m-41-644c-81-81-188-125-302-125-70 0-139 17-200 50-11 5-24 6-36 2l-212-74 74 212c5 12 4 25-2 36-33 61-50 130-50 200 0 114 44 221 125 302 80 80 187 124 301 124h0c114 0 221-44 302-124 80-81 124-188 124-302 0-114-44-221-124-301z m0 0m-122 258c-22 22-58 22-81 0l-24-25c-61 33-110 82-143 143l25 24c22 23 22 59 0 81l-66 66c-22 22-59 22-81 0l-52-53c-31-30-32-81-5-145 24-56 68-117 123-172 55-55 116-99 172-123 30-13 58-19 82-19 26 0 48 8 63 24l53 52v0c11 11 17 25 17 41 0 15-6 29-17 40z m-28-158c-9-9-35-12-81 8-49 21-104 60-154 110s-89 105-110 154c-20 46-17 72-8 81l52 52 63-64-30-31c-14-13-17-34-9-52 41-79 103-141 182-182 18-8 39-5 52 9l31 30 64-63z m0 0" horiz-adv-x="1000" />

<glyph glyph-name="magnifying-glass" unicode="&#xe842;" d="M991-99l-243 243c65 75 105 173 105 280 0 235-191 426-426 426-236 0-427-191-427-426s192-427 427-427c106 0 204 40 279 105l243-243c6-6 14-9 21-9s16 3 21 9c12 11 12 30 0 42z m-931 523c0 202 164 366 366 366 203 0 367-164 367-366s-164-367-367-367c-202 0-366 164-366 367z" horiz-adv-x="1000" />

<glyph glyph-name="send" unicode="&#xe843;" d="M988 759c-9 8-22 10-33 5l-845-340c-8-4-12-14-9-22s13-13 22-9l806 325-400-472c-6-7-5-17 2-23 7-6 18-5 24 2l406 479-54-273-55-365c-1-5-4-10-8-12-5-3-10-3-14-1l-228 90-109 45c-8 4-18 0-22-9 0-1 0-2 0-3h-1l-54-209-78 271 405 302c6 3 8 9 8 15-1 7-5 12-10 14-6 3-13 2-18-2l-407-304-293 119c-9 4-18-1-22-9-3-9 1-18 9-22l295-119 79-275c4-14 17-24 32-24h0c8 0 16 3 22 9 1 0 1 1 2 1l161 165 216-86c14-6 30-5 43 3 13 7 23 21 25 36l54 365 60 301c3 12-1 24-11 32z m-525-745l35 136 55-23 14-6-104-107z" horiz-adv-x="1000" />

<glyph glyph-name="shopping-bag-1" unicode="&#xe844;" d="M900-17l-58 649c-1 13-12 22-25 22h-121c0 108-88 196-196 196s-196-88-196-196h-121c-13 0-24-9-25-22l-57-649c0-1 0-1 0-2 0-72 66-131 148-131h503c81 0 148 59 148 131 0 1 0 1 0 2z m-400 817c81 0 146-65 146-146h-292c0 81 66 146 146 146z m252-900h-503c-54 0-98 36-99 80l56 625h98v-87c0-14 11-25 25-25s25 11 25 25v87h292v-87c0-14 11-25 25-25s25 11 25 25v87h98l56-625c-1-44-45-80-98-80z" horiz-adv-x="1000" />

<glyph glyph-name="clock" unicode="&#xe847;" d="M678 262l-139 104v213c0 22-18 39-39 39-21 0-39-17-39-39v-232c0-12 6-24 16-31l155-116c7-5 15-8 23-8 12 0 23 5 31 16 13 17 9 41-8 54z m-178 588c-276 0-500-224-500-500s224-500 500-500 500 224 500 500-224 500-500 500z m0-923c-233 0-422 190-422 423s189 423 422 423c233 0 423-190 423-423s-190-423-423-423z" horiz-adv-x="1000" />

<glyph glyph-name="phone" unicode="&#xe849;" d="M659-90c48 0 87 40 87 88v118c0 12-8 23-20 27l-175 59c-9 3-18 2-26-3l-74-50c-80 38-175 132-213 210l50 75c5 7 6 17 4 25l-59 176c-4 12-15 20-28 20h-117c-49 0-88-40-88-88 0-162 74-328 202-456 128-127 295-201 457-201z m-571 686h96l47-142-50-76c-6-8-7-18-3-27 19-48 58-103 110-154 51-50 106-89 155-109 9-3 19-2 27 3l76 51 142-47v-97c0-16-13-29-29-29-309 0-600 291-600 598 0 16 13 29 29 29z m459-332c11-4 24-2 32 7l109 108h105c114 0 207 92 207 205s-93 206-207 206h-234c-113 0-205-92-205-206 0-103 76-188 175-203v-90c0-11 7-22 18-27z m-135 320c0 81 66 147 147 147h234c82 0 148-66 148-147s-66-146-148-146h-117c-8 0-15-3-21-9l-67-67v47c0 16-13 29-29 29-81 0-147 66-147 146z" horiz-adv-x="1000" />

<glyph glyph-name="play-button-arrowhead" unicode="&#xe84b;" d="M213 828c-90 52-163 9-163-95v-766c0-104 73-147 163-95l670 384c90 52 90 136 0 188l-670 384z" horiz-adv-x="1000" />

<glyph glyph-name="email-1" unicode="&#xe84d;" d="M950 733h-900c-28 0-50-22-50-50v-666c0-28 22-50 50-50h900c28 0 50 22 50 50v666c0 28-22 50-50 50z m17-716c0-9-8-17-17-17h-900c-9 0-17 8-17 17v666c0 10 8 17 17 17h900c9 0 17-7 17-17v-666z m-49 650c-4 0-9-1-12-4l-385-323c-12-11-30-11-42 0l-385 323c-4 4-11 5-16 3-6-2-10-7-11-13s1-12 6-16l384-323c25-21 61-21 86 0l384 323c4 3 6 7 6 12 1 4-1 8-4 12-2 3-6 5-11 6z m-597-350c-6 1-12-1-16-6l-234-250c-4-4-6-10-4-16 2-6 7-10 12-11 6-2 13 0 17 5l233 250c4 4 6 10 4 16-2 6-6 10-12 12z m375-6c-4 5-11 7-17 6-5-2-10-6-12-12-2-6 0-12 4-16l234-250c6-7 16-7 23-1 6 6 7 17 1 23l-233 250z" horiz-adv-x="1000" />

<glyph glyph-name="quote_soft_vert" unicode="&#xe84e;" d="M274 475c15 52 68 126 91 149 14 14 15 36 2 50l-4 4c-11 12-29 15-43 8-281-148-298-382-295-416 0-3-1-7-1-11 0-121 98-219 219-219 121 0 219 98 219 219 0 110-82 201-188 216z m521 0c15 52 68 126 91 149 14 14 15 36 2 50l-4 4c-11 12-29 15-43 8-281-148-298-382-295-416 0-3-1-7-1-11 0-121 98-219 219-219s218 98 218 219c1 110-81 201-187 216z" horiz-adv-x="1000" />

<glyph glyph-name="quote_hard_01" unicode="&#xe84f;" d="M696 754h-288c-33 0-54-16-70-46l-292-712c-17-42 4-75 46-75h396c37 0 58 16 70 50l192 712c13 42-8 71-54 71z m667 0h-288c-33 0-54-16-71-46l-291-712c-17-42 4-75 45-75h396c38 0 59 16 71 50l192 712c12 42-9 71-54 71z" horiz-adv-x="1500" />

<glyph glyph-name="quote_hard_02" unicode="&#xe850;" d="M833-113h250c30 0 46 17 63 50l250 788c12 46-4 83-38 83h-341c-34 0-50-16-63-54l-166-787c-13-46 4-80 45-80z m-700 0h250c30 0 46 17 63 50l250 788c12 46-4 83-38 83h-345c-34 0-50-16-63-54l-167-787c-8-46 9-80 50-80z" horiz-adv-x="1500" />

<glyph glyph-name="quote_semi" unicode="&#xe851;" d="M138 448c-52-82-88-168-110-258-2-9-5-24-9-44-3-20-5-40-7-59h293c11 93 33 181 67 264 34 83 74 161 121 233l-186 71c-61-57-117-125-169-207z m676 208c-61-56-117-126-169-207-52-82-89-168-110-258-3-9-5-24-9-44-3-21-6-40-7-59h293c11 93 33 181 67 264 33 82 74 160 121 233l-186 71z" horiz-adv-x="1000" />

<glyph glyph-name="benefits_icon_06" unicode="&#xe855;" d="M657 292l-83-89h99l-93-90m-228-119v760c1 11 5 21 12 29 8 7 18 11 28 11h451c10 0 21-4 28-11 8-8 12-18 12-29v-760m-575-49v-39h628v39c0 6-1 11-3 16-2 5-5 9-9 13-4 4-8 7-13 9-5 2-10 3-15 3h-548c-5 0-11-1-15-3-5-2-10-5-13-9-4-4-7-8-9-13-2-5-3-10-3-16v0z m97 754v-282h412v282h-412z m220-272l-125 140m-149-420c-20 0-40 3-59 11-18 8-35 19-49 33-14 14-26 31-33 49-8 19-12 39-12 59v128m78 83c0-22-10-43-25-58-16-16-37-24-59-24-22 0-43 8-59 24-16 15-25 36-26 58v41h169v-41z m17 90h-205c-12 0-21-9-21-21v-5c0-12 9-22 21-22h205c12 0 21 10 21 22v5c0 12-9 21-21 21z m-171 22v94m128-94v94" horiz-adv-x="1000" />

<glyph glyph-name="benefits_icon_07" unicode="&#xe856;" d="M577 512c0-124-32-166-71-166-39 0-71 42-71 166 0 124 71 282 71 282 0 0 71-158 71-282z m65-366c-107 62-128 111-108 144 20 34 72 41 179-22 107-62 209-203 209-203 0 0-173 19-280 81z m-343 123c108 61 160 55 179 21 20-34-1-83-109-144-107-61-280-79-280-79 0 0 103 141 210 202z m470 368c66-55 113-129 136-211 22-83 18-171-12-251m-219-234c-78-35-165-44-249-27-84 16-161 59-220 122m-109 332c11 85 47 165 105 229 58 63 134 107 218 125m396-296c21-61 24-127 8-190m-359-242c-64 9-125 36-173 78m-43 447c40 51 94 89 155 110" horiz-adv-x="1000" />

<glyph glyph-name="benefits_icon_08" unicode="&#xe857;" d="M482 394c1-21-3-43-10-63-8-20-19-38-34-53-15-16-33-28-52-36-20-8-41-13-62-13-22 0-43 5-63 13-19 8-37 20-52 36-15 15-26 33-34 53-7 20-11 42-10 63v78h317v-78z m31 171h-384c-22 0-40-18-40-40v-10c0-23 18-41 40-41h384c22 0 40 18 40 41v10c0 22-18 40-40 40z m-326 3v196c0 8 3 16 9 22 6 5 13 8 22 8v0c8 0 15-3 21-8 6-6 9-14 9-22v-196m144 0v196c0 8 3 16 9 22 6 5 13 8 21 8v0c8 0 16-3 22-8 5-6 9-14 9-22v-196m-95-209c0-7-2-13-6-18-4-6-9-10-15-13-7-2-13-3-20-1-6 1-12 4-17 9-4 5-8 11-9 17-1 7 0 13 2 19 3 7 7 12 13 15 5 4 12 6 18 6 5 0 9-1 13-3 4-1 8-4 11-7 3-3 6-7 7-11 2-4 3-9 3-13z m480-284v183c0 14-2 28-7 41-6 13-13 25-23 35-10 10-21 18-34 24-13 5-27 8-41 8-14 0-28-3-41-8-13-6-25-14-35-24-10-10-17-22-22-35-5-13-8-27-7-41v-183c0-45-18-88-50-120-32-32-75-49-120-49-45 0-88 17-120 49-32 32-50 75-50 120v155m65 0v-155c0-28 11-54 31-74 20-20 47-31 74-31 28 0 55 11 75 31 19 20 30 46 30 74v183c0 22 4 45 12 66 8 21 21 40 37 56 15 17 34 29 55 38 21 9 43 14 66 14 23 0 45-5 66-14 21-9 40-21 56-38 15-16 28-35 36-56 8-21 12-44 12-66v-183" horiz-adv-x="1000" />

<glyph glyph-name="benefits_icon_09" unicode="&#xe858;" d="M425 31l28-123c17-2 34-2 51-2h11l42 119c35 6 69 16 101 32l99-74c18 12 35 26 51 40l-44 114c24 26 43 56 58 88l114 5c6 23 11 46 14 69l-97 54c0 6 0 11 0 17 0 31-4 61-12 90l76 70c-10 23-22 46-35 67l-97-19c-23 30-51 57-82 79l11 93c-22 12-46 22-70 30l-58-71c-27 7-55 10-83 10-12 0-24 0-35-2l-50 77c-24-4-48-11-71-20l1-92c-37-18-70-43-98-73l-94 29c-14-18-28-38-40-58l66-75c-16-37-25-78-27-118l-99-43c0-21 2-43 6-64l111-18c12-38 30-73 54-104l-54-106c13-15 28-29 44-42l106 63m31 128c-24 21-44 47-57 77-13 29-20 61-19 93 0 33 7 65 21 94 14 29 34 55 58 76m367-141c2-10 2-21 2-31 0-59-23-116-65-158-42-42-99-66-159-66m126 410c21-14 40-32 55-53m-212 140h149l-93-188 181-2-347-394 99 292h-125l92 237" horiz-adv-x="1000" />

<glyph glyph-name="presentation" unicode="&#xe85b;" d="M295-118c-7 140-14 281-5 421 3 32-47 32-44 0 8-70 2-140 0-210-3-70-7-142-11-212-1-42 62-41 60 1z m118 830c136-1 279 2 415 4 29 3 64-10 83-33 47-66 21-153 25-230 4-39 63-33 60 6-2 126 6 306-169 300-106-5-215-13-322-10 1 1 1 1 1 2 7 24 19 50 18 75-10 40-67 27-60-13 5-20 9-42 15-62 0 0 1-1 1-1-22 1-43 3-65 5-13 2-24-9-24-22 0-12 10-21 22-21z m555-424c-50-6-9-62-59-103-6-6-13-11-21-15-157-25-318-12-476-11-31 0-29-47 2-43 59 7 120 5 180 3 36 1 81-3 127-5 14-42 28-84 46-125-118 5-238 12-354 21-18 1-33-13-32-30 0-17 13-30 29-30 124 0 247 3 370 11 16-34 36-66 60-94 11-12 31-4 31 12 1 20-4 38-11 56-14 40-48 69-68 105-13 24-26 47-35 72 116-4 232 10 242 145 1 17-14 32-31 31z m-263 86c-21 22-47 47-69 68-28 30-56 64-95 82-27 14-42-21-58-36-14-15 5-36 21-25 11 8 17 18 25 27 34-18 55-50 79-79 28-31 49-67 75-100 32-32 70 30 92 50 11 15 54 62 45 79-7 13-21 12-28 4 0 0 0 0 0 0-31-20-59-45-87-70z m-248-88c-10 22-55 122-66 141-15 36-26 76-56 104-24 22-57 26-87 28-92 13-250 18-247-112 22-97-43-261 81-305-4-89 2-178 8-266 2-21 31-21 34-1 11 96 11 193 19 289-10 74-84-29-83 152-1 40 2 82-9 121-2 8-3 16-2 24 14 87 148 60 211 58 76 4 82-87 115-137 10-23 39-82 52-111 11-21 40-6 30 15z m-166 481c-33 119-210 86-201-37 10-165 243-118 201 37z m-105-105c-58-6-88 90-32 113 96 44 137-103 32-113z" horiz-adv-x="1000" />

<glyph glyph-name="reward" unicode="&#xe85c;" d="M946 28c-34 18-67 40-96 66-5 4-13 4-18-1-5-5-5-13 0-19 22-22 47-41 73-58-75-22-154 20-135-99-84 50-154 128-192 219-15 36-70 12-54-23 53-117 153-206 268-260 62-12 4 83 18 111 1 3 6 4 9 4 21 1 41 2 62 6 21 3 98 23 65 54z m-496 106c-35-97-118-166-201-221 20 152-30 76-116 101 31 26 59 55 84 86 22 28 41 59 50 93 4 15-17 23-24 9-36-73-105-124-174-165-12-3-21-13-23-25-1-8 0-16 5-23 5-6 12-10 19-11 42-22 90-23 136-18 0-29-2-58-5-86-2-18 18-30 33-21 104 68 200 154 257 267 8 27-31 40-41 14z m337 150c0 0 0 0 0 0 0 0 0 0 0 0z m114 232c-14 26-38 44-49 68-9 64 16 131-67 155-81 22-65 9-115 78-41 55-93 29-144 8-9-4-20-6-30-4-77 57-152 3-205-59-14-12-31-13-49-18-39-6-82-29-79-75 9-61-24-115-50-168-32-64 59-96 51-146 0-51-9-109 47-133 12-7 39-13 53-17 14-5 33-5 42-18 0 0 19-28 19-28 21-32 47-67 91-54 42 8 84 22 126 18 15-1 29-5 43-10 13-10 41-10 52 0 39 37 75 76 124 98 46 22 86 20 85 84 4 59 24 111 56 160 11 16 10 38-1 61z m-112-232c1 1 2 1 3 1-1 0-2 0-3-1z m-2 0c0 0 0 0 0 0 0 0 0 0 0 0 0 0 0 0 0 0-75-23-132-78-176-141-3-2-6-2-9-2-1 0-1 0-1 1-60 41-135 24-202 15 0 0 0 0 0 0 0 0 0 0 0 0-10 6-18 25-26 34-3 4-19 29-22 33-28 45-123 32-131 68-4 64 8 102-49 153-8 10-21 21-20 34 26 58 59 118 51 184-3 18 1 28 18 36 29 13 67 12 93 35 40 47 101 107 162 62 3-3 7-5 11-6 36-11 72 14 106 24 42 16 63-40 83-65 19-31 61-34 92-45 82-18 9-106 59-165 11-19 29-34 32-55-43-57-70-128-71-200z m71 198c0 0 0 1 1 1 0-1-1-2-1-1z m-514 119c-117-149 53-369 227-325 29 5 18 49-10 41-73-24-154 16-191 80-47 78-31 166 46 216 122 86 299-45 247-185-9-38 44-53 56-16 18 58 8 120-25 170-73 126-264 138-350 19z" horiz-adv-x="1000" />

<glyph glyph-name="share-1" unicode="&#xe85d;" d="M793 202c-58 0-109-29-141-72l-277 142c5 15 8 32 8 49 0 23-5 45-13 65l290 175c32-38 79-63 133-63 97 0 176 79 176 176 0 97-79 176-176 176-97 0-176-79-176-176 0-22 5-43 12-63l-290-175c-33 37-79 61-132 61-97 0-176-79-176-176 0-97 79-176 176-176 59 0 111 29 143 74l276-142c-5-16-9-33-9-51 0-97 79-176 176-176 97 0 176 79 176 176 0 97-79 176-176 176z" horiz-adv-x="1000" />

<glyph glyph-name="shopping-cart-1" unicode="&#xe85e;" d="M352 78c-63 0-114-51-114-114 0-63 51-114 114-114 63 0 114 51 114 114 0 63-51 114-114 114z m0-158c-24 0-44 20-44 44 0 25 20 45 44 45 24 0 44-20 44-45 0-24-20-44-44-44z m415 158c-63 0-114-51-114-114 0-63 51-114 114-114 63 0 114 51 114 114 0 63-51 114-114 114z m0-158c-24 0-44 20-44 44 0 25 20 45 44 45 24 0 44-20 44-45 0-24-20-44-44-44z m-465 193h544c20 0 35 16 35 35 0 20-15 35-35 35h-514l-100 614c-3 15-14 27-29 29l-134 24c-19 3-37-10-40-29-4-19 9-37 28-40l110-19 100-619c3-17 18-30 35-30z m663 511c-6 9-17 14-28 14h-711v-70h663l-72-224h-541v-70h567c15 0 28 10 33 25l94 293c4 11 2 23-5 32z" horiz-adv-x="1000" />

<glyph glyph-name="teachers_hover" unicode="&#xe85f;" d="M998 272c0-9-2-13-6-11-7 2-14-4-21-7-1 0-2 0-2-1-1-1-1-1-2-2 0-1 0-2 0-2 0-1 0-2 1-3 5-11 3-28 11-36 2-3 2-10 2-15 1-3 0-5 0-7-1-3-3-4-5-6-5-3-11-8-14-7-5 3-10-1-14-2-3-1-6-2-8-4-3-2-5-4-6-7-2-2-3-5-3-8 0-3 1-6 2-9 2-11 0-27 3-37 2-5 0-8-3-14-4-8-7-10-13-10-2 0-6-2-8 0-5 4-12 2-21-1-3-2-6-4-9-7-2-3-4-6-4-10-3-18-15-38-16-55 0-7-6-14-16-18-12-5-16 2-25 2-3 0-4 3-8 2-5-1-9-2-11-8-2-7-5-13-8-20-3-7-6-14-9-21-3-7-7-12-14-12-11-2-20-1-26 4-9 6-19 1-27-10l-11-17c-4-5-9-11-13-16-10-13-22-15-30-8-2 3-1 7-4 9-2 1-4 2-6 2-2 0-5 0-7-1-1 0-3-1-4-2-2-1-3-2-4-4-5-7-5-15-14-22-3-3-6-4-9-4-16-1-23 4-26 10-3 4-7 7-10 10-5 6-16 4-25-1-18-9-22-11-34-24-1-1-1-3-3-4-2-2-5-4-8-4-4 0-7 1-10 2-7 4-15 8-22 12l-11 7-10 7c-3 1-4 4-8 3-4-1-10-2-9-5 3-8-8-11-9-18-1-5-7-13-22-11-17 1-15 9-21 15-5 5-4 11-9 16-3 4-7 6-11 8-4 1-9 2-13 2-13-3-26-3-35-8-8-3-13 2-19 3-7 2-12 10-11 11 6 5-2 14 1 20 2 2 5 4-2 8-2 1-4 2-6 2-2 0-4 0-6-1-7-2-13-5-20-7-2-1-4-1-7-1-2 0-4 1-6 2-2 1-4 2-6 4-1 2-2 4-3 6-3 10-6 20-11 31-1 5-4 9-9 12-4 3-9 5-14 5-8-1-14-3-22-4-9-1-14 3-19 14-2 7-2 14 0 20 1 8-3 14-13 17-6 2-9-2-17 2-10 5-15 9-16 19-2 9-2 18-1 27 1 4 2 5-2 10-2 4-5 7-10 8-9 3-19 8-27 8-5 0-7 4-11 7-3 3-5 3-5 8 0 12-1 28 4 36 2 3 3 6 4 10 0 5 2 10-6 14-10 6-21 19-31 23-5 2-7 11-7 18 2 13 7 25 14 35 1 1 1 2 2 3 0 1 0 3 0 4 0 1 0 2-1 3 0 1-1 2-2 3-7 10-16 19-25 27-4 3-6 8-7 13-1 6 0 11 3 16 4 5 8 9 13 13 3 4 6 8 9 12 1 2 2 5 2 8 0 3-1 6-2 9-4 7-8 13-12 20-4 6-8 13-11 20-4 6-5 14-4 21 1 7 5 13 11 18 7 8 15 16 24 15 1 0 3 3 5 4 2 2 4 4 5 7 2 3 2 6 1 9-1 8-3 15-5 23-1 8-3 16-3 24 0 4 0 8 0 11 0 5-1 8 4 11 7 5 14 13 21 12 5 0 11 5 17 9 7 5 9 9 11 19 0 8 0 15 2 23 1 6 1 12-1 19 0 3 1 5 2 8 2 2 4 4 7 4 6 3 13 8 16 2 2-3 7 1 9 0 6-3 10 0 10 8 1 10 7 21 4 29-2 2 1 8 2 12 2 5 5 9 9 13 1 1 3 2 5 2 2 1 4 1 6 0 4-1 8-2 12-3 3-1 3-6 8-2 5 4 12 8 14 16 4 11 8 21 13 32 7 13 13 16 26 14 8-2 10-9 22-7 4 1 6 1 9 6 11 18 23 36 36 52 3 4 6 7 9 10 3 2 7 4 11 5 5 2 5-1 6-3 7-8 18-14 21-24 0-2 3-2 6-1 4 1 4 2 5 4 3 6 5 12 8 17 6 12 14 14 28 10 11-4 15-11 22-16 1-1 2-2 3-2 1-1 2-1 3-1 1 0 2 0 4 1 1 0 2 1 2 2l14 14c5 4 9 9 13 13 3 2 1 5 8 6 5 1 10 0 14-3 3-2 6-6 9-9 1-3 3-5 6-6 1-1 4-2 6-2 2 0 5 1 6 3 4 4 12 8 12 12 1 7 13 3 17 6 3 2 9-2 12-4 8-8 9-16 13-24 0-2 0-4 3-6 3-2 4-4 8-2l20 13c16 10 18 10 32-5 4-4 4-8 7-12 5-7 8-10 17-9 8 1 17 3 26 4 16 1 21-1 29-14 2-2 3-4 3-7 0-4 4-6 9-6 11-2 16 3 26 2 12-1 14-3 20-14 4-10 6-20 6-30 1-4 3-9 4-14 1-5 4-4 7-5 10-1 19-3 24 4 2 3 6 2 10 3 10 0 24-11 24-20 0-8 1-17 1-25 1-8-1-15-6-21-3-4 0-8 6-10 3-1 6-3 8-1 6 6 19 3 24 11 1 3 4 4 10 2 4-1 6 3 11-6 3-5 8-8 6-16-2-11-2-26-9-34-4-5-1-10 5-15 10-7 21-11 33-12 3 0 4 6 9-3 6-9 9-18 6-24-1-2-3-4-4-6-2-6-10-6-7-15 4-6 9-11 16-15 5-3 10-6 16-9 5-4 10-9 15-14 2-1 3-3 3-5 1-2 1-4 0-6-1-7-4-14-7-20-3-5-7-10-12-14-2-1-4-2-5-5-5-10-5-11 3-21 10-12 21-23 34-33 3-3 6-7 7-11 2-6 0-15-4-15-2 0-5-2-7 0-18 17-36 33-52 58-2 5-5 9-6 14-3 5-2 18 2 19 7 2 11 11 15 21 2 4 7 7 5 12-3 5-7 9-12 12-8 3-16 6-24 10-5 3-10 7-12 12-3 5-3 12-1 18 2 8 12 11 7 23-5 9-15 6-23 12-4 3-9 5-14 8-3 2-6 5-8 9-2 3-3 7-2 12 1 7 5 13 7 20 0 1 0 2-1 4 0 1-1 2-2 3-2 2-3 3-5 2-4-4-10-5-16-5-7 0-14 2-20 5-3 1-5 3-8 6-2 2-3 5-4 9-2 8-2 17-1 26 1 7 2 13 0 19-2 9-5 12-10 10-8-1-16-1-24-1-7 0-14 2-19 6-5 5-8 12-9 19-1 8-2 17-3 26 0 2-1 4-2 6-1 2-3 4-5 5-2 1-4 2-6 2-2 0-5 0-7-1-6-1-11-4-17-7-3-1-8-2-12-2-8 0-16 6-15 11 0 6 4 9 0 16-1 2-3 5-6 6-2 2-5 3-9 3-6-1-13-2-19-3-6-1-12-2-18-4-7-2-7 2-11 5-10 6-1 11-8 17-3 2 2 5-6 7-2 1-4 1-6 1-2-1-4-2-5-3-3-4-8-7-11-11-4-9-13-10-26-8-5 1-6 2-8 5-4 7-7 14-9 21 0 3-2 5-4 6-3 2-6 2-8 2-7 0-12-3-11-8 0-3 0-6-1-9-1-7-9-10-23-9-3 1-5 1-5 3 1 10-13 16-18 24-1 1-2 2-3 3-1 0-2 1-3 1-2 0-3-1-4-1-1-1-2-2-3-3-3-3-8-7-11-11-4-4-7-8-9-12-1-3-3-5-5-7-2-1-5-2-8-2-2-1-5-1-8 0-3 0-5 2-7 3-6 6-12 11-19 15 0 1-1 1-2 1-1 1-1 1-2 1-1-1-2-1-2-1-1-1-2-1-2-2-4-4-8-8-10-13-2-6-5-11-9-15-2-2-3-3-5-3-2-1-4-1-5 0-4 0-8 2-11 4-4 3-6 6-8 9-4 5-8 10-13 14-5 4-7 4-12-2-12-12-20-26-25-42-3-8-7-15-11-22-2-2-4-4-7-4-3-1-5-1-8 0-10 3-21 6-31 7-4 1-7-2-11-6-6-9-11-18-14-29-2-4-3-9-5-13-1-5-6-8-10-12-7-7-7 0-10-1-9-1-11 9-20 2-3-3-6-7-6-12-1-5-1-10-2-14 0-2-1-4 0-7 0-2 0-4 1-6 6-6-3-16-4-24-1-1-1-2-3-3-1-1-2-1-4-1-9 3-18 5-28 5-3 0-8-1-9-11-2-10-4-21-4-31 0-3 0-6-1-10-3-16-10-27-21-27-7-1-13-3-19-6-6-2-11-9-9-14 2-8 3-16 3-24-1-8 1-15 6-22 4-5 0-23-7-28-4-2-8-4-13-6-7-2-14-6-20-12-3-2-4-6-5-9-1-4-1-8 0-11 5-11 10-22 16-33 1-1 2 0 3-2 3-4 6-10 9-15 3-5 5-12 5-18 0-13-9-18-15-25-4-4-12-6-8-21 1-5 1-9 6-9 1 0 4-4 6-7 13-15 19-23 20-29 0-6-5-12-12-22-1-2-1-5-2-7-2-3-3-7-2-10 1-4 3-7 5-9 3-4 7-6 11-8 9-3 16-12 24-17 3-2 4-5 5-8 1-3 1-6-1-8-4-11-5-26-10-36-1-4 0-7 1-10 2-3 5-6 8-7 9-2 19-4 29-6 4-1 8-3 12-6 6-4 10-9 8-15-2-6-3-12-3-18 0-2-2-2-2-5 1-12 4-15 17-19 8-3 17-5 25-8 11-3 16-9 12-16-2-4 0-9-1-12-2-4 1-8 2-11 4-1 7-2 11-2 13 1 26-1 39-6 1 0 3-1 4-2 1 0 2-2 2-3 4-6 6-13 6-20 0-5 2-10 6-14 1-3 4-5 7-7 3-1 7-1 10 0 5 1 14-1 16 3 2 3 13-5 14 1 1 2 7 0 9-3 3-3 5-6 6-9 1-4 1-7 0-11-1-2-1-4-2-6 0-2 0-5 1-7 1-2 3-4 5-6 5-3 12-4 19-3 5 0 10 1 15 2l14 3c18 4 21 4 30-11 2-4 7-9 8-13 1-6 8-5 13-6 5-1 7 2 6 4-1 7 11 12 10 19 1 2 2 4 4 5 1 1 3 2 5 2 5 0 10 5 18-1 4-2 8-5 11-7l9-8c7-5 14-10 22-14 4-2 6 0 11 0 7 1 15 5 20 10 11 7 22 14 34 21 10 6 21 6 24 0 4-6 10-10 16-13 11-7 11-6 20 3 4 4 2 8 7 12 6 3 10 7 15 11 4 5 15 8 17 4 2-4 9-6 13-10 1-1 3-2 5-3 2 0 5 0 7 0 2 1 4 2 6 3 1 2 3 4 3 6 3 7 12 12 15 18 2 6 9 14 12 21 0 1 1 3 3 4 1 2 3 2 4 3 3 1 7 1 9 2 2 0 4 0 6 0 3-1 5-2 6-4 3-2 7-3 10-4 3 0 7 0 9 2 3 1 6 3 8 5 3 5 5 10 5 16 0 4 3 8 4 12 1 8 6 16 11 22 6 5 13 1 20 1 9 1 12-7 25-1 6 3 10 5 10 11 2 10 5 19 8 28 4 9 7 19 9 28 1 4 2 7 4 10 2 3 5 5 9 7 8 3 17 12 22 5 3-4 9 0 14 7 5 8 2 10 2 15-2 13-1 27-3 40 0 3 0 8 3 9 8 5 15 17 22 14 2 0 4 1 6 1 15 6 16 9 10 27-3 8-4 18-6 27-5 14-5 14 7 26 4 4 9 7 15 8 7 1 8 6 7 20 0 8-2 16-6 22-4 7-4 17-7 26-1 3-2 11 2 13 2 1 5 2 7-2 2-3 4-6 5-9 2-5 3-10 5-15l4-16c3-10 5-20 7-31 0-5-1-9-3-13z" horiz-adv-x="1000" />

<glyph glyph-name="loupe" unicode="&#xe862;" d="M440 850c-242 0-440-198-440-440 0-243 198-441 440-441 243 0 441 198 441 441 0 242-198 440-441 440z m0-799c-198 0-359 161-359 359s161 359 359 359 360-161 360-359-162-359-360-359z m548-132l-233 234c-16 15-42 15-57 0-16-16-16-42 0-58l233-233c8-8 18-12 28-12 11 0 21 4 29 12 16 16 16 41 0 57z" horiz-adv-x="1000" />

<glyph glyph-name="pin-1" unicode="&#xe863;" d="M500 850c-207 0-375-168-375-375 0-277 346-606 361-619 4-4 9-6 14-6s10 2 14 6c15 13 361 342 361 619 0 207-168 375-375 375z m0-583c-115 0-208 93-208 208s93 208 208 208 208-93 208-208-93-208-208-208z" horiz-adv-x="1000" />

<glyph glyph-name="checkmark-2" unicode="&#xe865;" d="M974 716c6 9 16 19 17 29 0 19 1 38 4 57 1 4 1 9-1 14-2 4-5 8-9 11-5 4-9 8-13 13-12 12-20 14-32 2-13-12-29-20-47-23-14-1-24-13-32-27-16-23-33-45-51-66-14-16-26-33-36-51l13 5c-5-12-10-19-14-27-3 1-6 2-9 2-3-1-5-1-8-3-2-1-4-3-6-6-1-2-2-5-2-8l9-6-17-28v-1l1 1-25-35-11 10c-5-15-17-23-15-41 0-4-3-8-5-12-32-51-62-106-102-149 4-20-13-9-17-20-4-10-15-18-16-35 0-10-15-19-23-29-2-2-2-3-3-5 0-24-16-34-27-48-5-8-10-17-12-27-3-8-15-11-21-19-21-29-40-58-60-87-9-13-19-27-36-31-9 25-32 35-39 68-5-45-5-45 14-71 3-4 7-6 9-10 3-3 4-8 4-12 0-4-1-8-4-12-14 18-28 35-42 52l-15-17c-4 12-8 23-14 33-6 9-17 11-24 20-9 14-23 23-23 47 0 8-8 16-12 24-5 8-11 17-16 25-7 10-14 20-20 30l-15-9c-16 18-32 35-47 52 0-13 4-26 10-37 6-12 14-22 25-31 4-2 7-6 8-11 2-4 2-9 0-13-5-23 18-37 13-61 0-3 6-8 10-12 11-15 23-30 35-44 15-17 30-36 46-52 23-24 45-51 64-79 15-21 26-47 42-68 29-34 50-45 92-34 1 8 3 15 6 21 3 6 9 10 16 13 5 1 10-3 16-4 9 12 16 24 22 38 10 32 23 63 39 92 9 18 16 36 24 55 5 13 9 26 13 40 3 8 3 17 5 26 0 1 3 2 6 4 0-9 1-16 2-25 28 45 35 67 32 100-16-14-20-39-37-51-3 4-4 9-3 13 0 5 3 10 7 13 27 27 44 65 64 99l20-19c32 21 42 59 54 98 16-5 24 11 36 21 13 13 14 32 18 48 4-1 9-3 10-2 11 15 22 30 32 45 2 2 3 4 5 8l-15 20c-4-15-7-25-10-36l-12 5c-7-9-6-27-22-24 4 25 20 37 31 53 4 8 7 17 10 25 11 0 20 13 31 7 19-9 29 5 39 21 10 15 19 30 28 45 18 30 38 56 56 86 3 6 6 14 8 21l-26 6z m-767-570l-1 5 11 5 1-4-11-6z m40-49c19-8 22-13 24-38l-24 38z m68-35c18 0 17-20 24-30-15 1-19 14-24 30z m351 286c-2 3-4 6-4 7 1 1 4 4 6 5 1-2 3-4 3-6 0-3-3-4-5-6z m23-15c-2 3-4 6-5 10 0 2 3 5 4 5 2-1 5-2 7-4l-6-11z m6-28c1 4 3 9 4 13 13-8 0-10-4-13z m93 256c5-11 9-21-1-29-2 0-3-1-5 0-1 0-3 1-4 2-6 12 1 19 10 27z m-32-175l-4 4 9 15 4-3-9-16z m-9 21c-9 23 2 38 8 50 5 12 20 19 34 30 2-8 4-13 3-15-14-21-28-42-45-65z m43-5c-14 17-11 28-5 38l9-2c-1-10-2-20-4-36z m69 241c-6 3-10 4-14 6 5 5 11 11 14-6z m10-93c-3 6-5 12-9 21l-22-40-27-26c0 3-1 7 0 9 25 42 43 89 71 128 3 3 5 5 8 7 1-26-17-33-25-48 9-21 9-21 26-11-2-13-2-13-22-40z m52 91c-1-3-4-4-6-6-1 3-2 5-2 8 0 2 3 3 5 6 2-3 4-7 3-8v0z m-2 27h-3c-1 4-1 7 0 11 1 3 2 6 4 9l5-3c-2-5-4-11-6-17v0z m-850-288c-3 5-4 10-3 16 1 12 0 25-1 38-14-24-35-16-56-19-3-12-7-23-9-31 13-18 24-34 35-48 24-30 42-67 72-91 7-6 19-11 18-29 0-5 11-12 18-15 4-2 9 3 12 4-9 14-16 27-24 39-3 8-8 15-13 21-18 20-31 43-38 69 6-9 13-17 18-26 7-9 14-18 24-11-6 9-12 18-17 28-12 18-25 36-36 55z m54-83l0-1c0 0 0 1 0 1l0 0z m23 32c-17 29-40 55-66 78 16-33 36-61 66-78z m140-167c-18 25-35 49-52 73-2 2-8-1-15-2 23-27 42-51 62-75l5 4z m-86 103c-10 23-25 43-44 60 5-31 22-55 44-60z m532 354c0-6-11-15 7-15v17l-7-2z" horiz-adv-x="1000" />

<glyph glyph-name="advantages_04" unicode="&#xe866;" d="M819 276c-2 3-3 5-6 6-25 19-62 23-102 21 5 23 7 47 9 70 3 23 9 52-6 72l-1 0c-5 6-15 9-22 0-14-17-10-38-10-58 0-29 0-58-3-87-41-4-80-12-110-15-82-7-163 0-244-5 0 1 0 1 0 1-1 31-2 61-1 92 1 19 13 57 2 74-3 4-8 7-13 8 161-2 323 16 485 0 11-1 18 7 20 16 14 3 25 18 15 33-32 47-87 85-129 124-71 66-124 148-194 215-9 9-25 10-35 0-103-108-188-232-303-328-9-8-8-19-2-28-8-8-4-23 10-25 43-4 85-6 127-7-2 0-4-1-6-2-21-13-15-51-14-72 1-33 2-70 10-103-29-3-58-8-87-16-1 0-1 0-2 0-7 0-12-2-15-6-1 0-2 0-3-1-13-4-15-18-10-27-1-3-1-6-1-9-2-18-1-37 7-53 1-2 2-3 3-4-9-5-9-21 2-24 17-5 34-8 52-11-3-4-5-8-5-13 0-74-7-153 9-226-1-1-3-1-5-1-14-4-11-26 4-26 44 2 87 0 131-2 12 0 21 11 21 22 1 53 30 91 86 83 56-9 60-50 71-95 0-2 1-4 2-5 1-7 6-13 16-13 32-2 64 0 96 3 21 2 58-2 71 19 1 2 1 4 2 7 5 2 10 7 12 13 14 37 12 83 13 122 0 28 10 87-8 111 19 6 36 14 49 24 7-1 16 2 19 11 8 20 8 42 7 63-1 18-2 39-14 52z m-103 236c1 5 2 11 3 16 1 6 2 12 3 18 14-14 27-27 42-40-16 2-32 4-48 6z m-40 42c1 12 2 25 3 37 8-9 16-17 24-26-1-9-2-18-2-27-1-8-2-16-2-25-9 1-18 2-27 3 2 12 3 25 4 38z m-41 85c7-7 13-14 19-21-2-18 0-36 0-53 0-16 0-32-1-48-9 0-17 1-25 1 4 40 7 81 7 121z m-61-29c-1 31 4 64 1 96 12-13 24-26 35-39 0 0 0-1 0-1-4-48-6-98-5-147-10 0-21 0-32 0 1 30 1 60 1 91z m-52 21c-1 42 3 87 1 130 12-12 24-25 35-37-1-1-3-3-3-4-12-29-7-65-6-95 1-36 3-71 6-106-14-1-28-1-41-1 8 36 9 74 8 113z m108-390c11 1 22 1 33 2-1-13 0-25 1-38 0-10 1-21 1-32-17-3-35-5-53-8 12 23 21 51 18 76z m-63-76c0 16 1 32 2 48 0 8 2 17 3 25 11 1 22 2 33 2 1-10 2-21 1-31-1-15-5-31-10-46-10-1-21-3-31-4 1 2 2 4 2 6z m-55 29c2 15 6 28 9 42 9 0 18 1 26 1-3-24 0-50 1-72 0-3 1-5 2-6-7-1-15-2-22-2-7 0-13 0-19 0 0 12 1 25 3 37z m-37 14c0 10 1 19 0 28 8 0 16 0 23 0-10-24-10-53-9-79-5 0-11 0-16 0 1 17 1 34 2 51z m-112 5c2 8 5 15 8 23 13 0 26 0 38 0 0-7 0-13 0-20 0-17-2-33-4-49-1-9 11-13 14-4 7 22 12 49 10 73 7 0 14 0 21 0 0-9 0-18 1-28 0-17 1-34 2-52-31 0-61 1-91 1 0 0 0 1 0 1-3 18-2 37 1 55z m-50-7c0 9 1 19 0 28 11 1 23 1 34 1-1-4-2-8-3-11-4-22-3-45 2-66-12 0-24 0-36 1 2 15 2 31 3 47z m151 406c-1 45 6 94 1 138 21 21 35 34 36 33 1-1 2-1 2-2-17-34-10-78-8-114 3-50 7-100 1-150-12-1-23-1-34-2 3 32 3 65 2 97z m-27 111c-3-25 1-53 1-77 2-44 5-88 3-132-9-1-19-2-29-2-2 61-1 122-2 183 10 10 19 19 27 28z m-94-137c1 13 2 27 2 41 13 14 26 28 40 41 0-52 3-105 9-158-18-1-36-3-53-4 3 26 2 54 2 80z m-128-91c12 11 28 27 46 46 1-14 3-28 6-42-18-1-35-3-52-4z m65 5c1 12 1 24 1 36 0 9 1 18 1 27 12 12 25 25 38 38 0-3 0-5 0-8 1-29-1-60 3-89-14-1-28-2-43-4z m-65-338c4 5 7 11 6 18-3 16-3 29 2 44 8 2 17 3 25 4 1-6 2-13 2-19 1-16 4-33 7-49-14 1-28 1-42 2z m56 69c7 1 14 1 22 2-1-9 0-18 0-27 1-16 1-31 3-47-8 0-16 0-23 1-2 16-3 32-3 49 0 7 0 15 1 22z m442-328c-11 1-22-2-33-3-28-4-56-10-85-14 26 117-223 189-240 16-28-2-56-4-83-9 5 73 9 148 10 221 0 3-1 5-2 7 82-11 166-11 248-10 43 1 123-4 191 7-3-13 0-30 1-42 0-27 0-53 0-80-1-20-11-64-7-93z m9 315c-1-13-4-25-8-37-11-2-22-4-33-5 1 10 1 19 2 29 0 13 2 26 1 39 12 0 25 0 38 1 0-9 1-18 0-27z m15-34c8 19 13 43 9 62 14 0 27 1 41 2 1-8 4-15 5-23 3-12 3-24 3-36-19-1-39-3-58-5z" horiz-adv-x="1000" />

<glyph glyph-name="shopping-cart" unicode="&#xe867;" d="M352 78c-63 0-114-51-114-114s51-114 114-114c63 0 114 51 114 114 0 63-51 114-114 114z m0-158c-24 0-44 20-44 44s20 45 44 45c24 0 44-20 44-45s-20-44-44-44z m415 158c-63 0-114-51-114-114 0-63 51-114 114-114 63 0 114 51 114 114s-51 114-114 114z m0-158c-24 0-44 20-44 44s20 45 44 45c24 0 44-20 44-45 0-24-20-44-44-44z m-465 193h544c20 0 35 16 35 35 0 20-15 35-35 35h-514l-100 614c-3 15-14 27-29 29l-134 24c-19 3-37-10-40-29-4-19 9-37 28-40l110-19 100-619c3-17 18-30 35-30z m663 511c-6 9-17 14-28 14h-711v-70h663l-72-224h-541v-70h567c15 0 28 10 33 25l94 293c4 11 2 23-5 32z" horiz-adv-x="1000" />

<glyph glyph-name="advantages_06" unicode="&#xe868;" d="M745 839c0 1-1 1-2 2-3 5-8 9-17 9-89 0-178 0-267-2-59-2-121 3-179-9-38-8-61-44-77-76-29-58-50-112-87-165-20-28-55-75-48-113 9-55 51-78 87-117 32-33 103-133 161-127-1-7 1-15 10-17 38-6 77-11 116-14 0-1 0-1-1-1-40-81-63-342 67-358 121-15 120 186 104 305 2 3 2 7-1 9-2 14-4 26-6 37 43-3 101-10 137 4 0 0 0 0 1 0 2 1 4 2 5 4 3 2 4 6 5 9 0 0 0 0 1 0 81 72 168 206 179 316 11 117-135 216-188 304z m-265-931c9-7 18-13 28-18-11 0-21 7-28 18z m49-14c-9 5-18 9-26 13-12 6-22 13-32 20-3 6-5 12-7 20 12-8 24-15 36-23 12-8 24-18 36-27-2-1-5-2-7-3z m19 12c-25 21-57 38-86 51-1 5-2 9-2 14 30-21 64-42 98-53-3-4-6-8-10-12z m18 27c-21 9-42 17-62 27-16 8-31 17-46 25-1 8-2 16-2 23 37-24 76-48 116-61-2-5-4-10-6-14z m10 29c-22 12-45 21-67 32-18 10-36 20-54 30 0 9 0 19 0 28 20-9 39-20 58-32 22-13 43-31 65-44 0-4-1-9-2-14z m4 35c-18 14-40 25-59 37-21 12-43 22-66 30 0 9 0 17 0 25 41-25 83-51 126-68 0-8 0-16-1-24z m-114 211c1 0 2 0 2 0-1-3 0-6 3-8 22-14 43-28 64-42 12-7 24-16 38-21 1-7 1-13 2-19-19 11-42 20-62 30-16 9-33 20-50 28 2 10 3 17 4 22 1 4 1 7-1 10z m51-3c0 0 0 0 0-1 18-8 34-19 51-30 1-4 1-8 2-12-9 3-17 7-26 11-19 11-38 23-57 33 10 0 20-1 30-1z m-12-70c23-14 47-30 72-38 1-6 2-12 2-18-36 24-80 44-120 59 1 8 1 16 2 23 14-10 30-18 44-26z m20-46c18-11 36-23 56-32 0-6 0-11 0-17-39 23-83 42-125 62 1 8 1 15 2 22 23-10 45-23 67-35z m199 160c-2-2-3-4-4-6-35 5-80-2-109-2-93 0-185 7-277 12 0 6-4 13-12 14-50 6-108 94-139 129-28 29-84 58-74 108 9 46 54 92 80 130 15 22 24 48 34 73 29 75 70 100 149 98 117-3 236 3 354 3 3 0 5 0 7 1 37-77 99-137 139-212 56-105-77-277-148-348z m123 305c-52 85-64 197-174 224-49 12-104 8-154 6-49-2-111 4-159-8-31-9-45-26-61-54-37-62-92-118-119-186-36-91 89-184 161-217 0 0 1 0 1 0-1-6 1-13 9-15 64-11 128-25 192-33 44-5 125-20 162 15 37 35 63 83 88 127 15 26 51 79 45 114 9 4 16 15 9 27z m-52-44c-16-53-51-105-82-151-73-111-244-28-356-29 0 3-1 7-5 9-46 33-76 68-111 112-45 55-18 86 18 139 25 38 52 73 74 112 24 41 64 36 104 38 75 3 151 12 225 0 89-15 108-129 146-197-9-7-10-23-13-33z m-413-10c-5 29-33 39-48 61-14 21 23 25 33 30 9 5 8 18 0 23-37 20-78-15-73-53 3-26 24-39 41-56 5-4 7-9 9-15-1 0-2 0-3 0-5 1-10-1-15-2-9-2-14-14-9-22 10-12 23-18 39-15 25 5 29 27 26 49z m104 106c-12 9-28 5-42 5-14-1-29-1-44-3-14-2-14-27 0-29 6 0 12-1 18-1-3-14-2-30-2-43-1-23-1-46 0-69 1-17 24-17 26 0 2 23 4 46 7 69 1 14 5 28 5 41 11-1 23-2 32 5 9 7 9 18 0 25z m127-17c-12 12-38 22-52 10-67 3-87-169 12-154 42 7 61 54 60 91 0 20-7 39-20 53z m-44-104c-24-9-27 30-26 45 1 16 8 31 21 40 7-3 15-3 21-9 7-6 8-16 8-25 1-17-5-44-24-51z m116 132c-9 0-16-6-18-14-16-52-23-107-23-161-2-18 29-25 32-6 3 21 5 41 8 61 35-13 78 2 86 42 9 51-41 78-85 78z m5-81c2 14 5 28 9 42 17-3 33-10 33-30 0-22-27-15-42-12z" horiz-adv-x="1000" />

<glyph glyph-name="advantages_01" unicode="&#xe869;" d="M278 563c1 1 1 2 2 4 1 6 0 14-1 21 0 0 0 0 0 0-1 5-1 9-2 14-2 9-9 12-16 11-6 1-13-2-15-11-1-5-1-9-2-14 0 0 0 0 0 0-2-7-3-15-1-21 0-2 1-3 2-4 0-1 0-1 0-2 1 0 1 0 1-1 1 0 1-1 2-1 3-5 8-6 13-6 5 0 10 1 14 6 1 0 1 1 2 1 0 1 0 1 0 1 1 1 1 1 1 2z m720-202c-7 41-34 73-68 95-56 36-153 25-149-54-7 4-15 8-24 11-5 2-9 1-12-1-32 13-71 6-106 4-49-4-96-6-145 2-5 1-9 2-13 3 43 117 45 284-85 341-1 3-3 6-8 6-2 0-3-1-5-1-69 24-220 22-212-73-4-1-8-1-12-2-81-13-173-68-157-158 14-83 108-95 192-93-4-99 24-196 81-263-7-14-13-28-20-41-4-6-10-15-15-24-2 1-4 0-6-2 0-1-1-2-2-2-68 38-153 38-118-64 23-67 100-98 184-112 2-3 6-4 9-2 77-12 158-11 207-11 38 0 83 0 128 4 4-4 10-5 13 1 0 0 0 0 0 0 117 12 236 50 267 169 23 88-102 37-160 0-2 5-10 8-15 4-11 30-22 60-31 91 51 38 96 84 109 126 44-13 80-40 99-84 3-8 16-9 22-3 35 36 61 82 52 133z m-386 16c-2-9-5-17-12-25-12-15-31-22-49-26-22-4-77 2-66 37 2 7-7 10-11 5-32-44 31-70 67-71 27 0 53 9 74 26 15 12 29 35 32 56 7 1 14 1 20 2 8-22 19-38-2-63-22-26-59-39-91-46-33-7-72-7-102 10-41 23-31 73-18 110 42-19 101-19 158-15z m-190 158c9 1 19-1 26-1 9-1 17-3 26-4-3-33-11-66-19-93-25 23-30 63-33 98z m54 21c-11 2-23 2-32 1-6 0-15 0-24-2 0 6-1 12-2 18-2 13-7 25-13 36 6 5 13 9 22 12 15 5 29 1 44 1 4-21 5-43 5-66z m-11 88c-25 6-52-3-69-21-7 10-16 18-25 26 7 7 15 14 24 20 16 10 33 11 50 16 9-12 15-26 20-41z m-100 95c10-3 20-7 28-10 14-6 25-14 35-23-29-2-55-23-74-47-9 6-20 11-31 16 1 1 2 2 3 4 4 16 9 32 20 45 5 6 12 11 19 15z m-87-9c5 9 13 15 22 20 13-1 25-3 37-5-16-16-25-40-28-64 0-1 0-1 0-2-11 4-22 7-34 10-3 14-4 28 3 41z m-11 19c-11-16-15-36-10-57-21 3-42 4-62 4 7 33 36 48 72 53z m-105-704c-27 34-37 68 22 54 0 0 1-1 2-1-6-8-10-17-14-26-3-8-6-15-9-23 0-1-1-2-1-4z m9-10c5 5 8 14 11 19 6 13 12 27 19 40 5-1 10-3 15-4-14-20-26-43-35-66-4 4-7 7-10 11z m21-22c13 26 31 48 46 72 3-4 8-7 14-5 16 5 22 32 27 46 4 11 9 22 12 33 6-5 12-10 18-15-35-46-62-99-92-150-8 5-16 12-25 19z m115-44c-9 2-18 3-27 6 7 12 13 26 18 40 11 29 23 60 27 90 1 8-10 9-14 4-13-21-17-47-24-70-6-21-13-41-24-60-10 2-21 5-31 8 0 0 0 0 0 0 31 48 66 95 92 145 4-3 8-6 12-8-1-4-1-8-1-11-2-10-3-20-3-30-1-13-5-32 6-42 1-1 2-1 3-1-14-22-26-47-34-71z m16-3c6 13 12 25 19 38 7 12 14 23 21 35 7-5 15-8 24-10-13-22-24-45-32-68-11 1-22 3-32 5z m45-7c11 23 24 44 37 65 17-3 33-5 49-6-16-19-28-42-42-63-14 1-29 3-44 4z m63-5c5 7 10 14 15 21 10 13 20 27 29 41 3 0 7 0 10 0 4-1 9-1 15-2-5-7-9-15-12-20-8-13-14-27-20-41-12 0-24 1-37 1z m99-3c-17 1-34 1-50 1 7 10 14 20 21 30 6 9 12 18 18 27 2 1 3 2 4 4 15-1 31-1 47-1-15-19-27-40-40-61z m48 0c-10 0-21 0-31 0 16 20 32 41 45 63 14 1 28 3 41 7-5-9-10-18-16-25-11-15-23-29-37-41-1-1-2-2-2-4z m288 163c0-4 0-7 1-10-11-14-19-31-27-44-13-21-26-42-40-64-24-12-48-21-74-27 25 44 60 77 90 118 3 4 0 9-4 11 16 8 33 13 54 16z m-109-62c9 10 17 19 27 27-33-32-59-73-77-114-10-3-20-5-31-6 12 17 23 33 35 50 10 13 20 26 30 40 5-3 11-3 16 3z m-32 21c0-1 0-1 1-1-12-17-23-35-35-52-14-21-27-42-38-65-18-1-37-3-55-3 11 8 21 17 30 28 12 14 28 32 34 50 8 4 15 8 22 13 9 7 8 22-1 27-1 4-2 7-3 11 11 18 23 39 24 59 0 7-9 8-12 3-6-8-8-17-11-26-3-7-5-13-8-19-6 13-12 26-18 39-4 8-17 2-15-6 4-14 6-28 9-42 2-7 2-16 3-24-50-15-99-20-152-19-26 0-52 5-77 9 0 6-7 11-12 6-1-1-2-2-2-3-12 2-23 4-35 6-1 6-9 9-13 4 0 0 0 0 0 0 0 5-1 10-1 15-1 10-2 19-3 29 55-28 124-34 203-11 29 9 85 38 138 75 4-35 13-71 27-103z m-208 51c-213-51-284 157-300 318 34 2 65 5 87 5 10 0 12 15 2 18-34 8-64 10-100 10-20-1-39 0-59 1 15 49 32 140-14 172-6 4-16-1-16-9 3-25 15-48 17-74 1-29-3-58-7-86-6 0-11 0-17 1-81 72-87 123-18 153 52 32 118 38 176 26 110-24 106-136 139-221 7-18 20-31 37-41-20-41-31-88 1-126 30-34 86-36 127-31 45 6 95 24 124 61 16 20 22 55 12 82 16 0 31 0 42-2 2-1 4-1 5 0 122-109-151-236-238-257z m422 141c-24 42-64 71-111 83-3 17-13 32-33 45 8 26 18 47 46 54 26 6 55-8 76-22 61-40 58-107 22-160z" horiz-adv-x="1000" />

<glyph glyph-name="user-1" unicode="&#xe86a;" d="M500 850c-276 0-500-224-500-500s224-500 500-500 500 224 500 500-224 500-500 500z m0-921c-232 0-421 189-421 421s189 421 421 421c232 0 421-189 421-421s-189-421-421-421z m0 332c-141 0-272-70-370-198l62-48c83 108 193 167 308 167s225-59 308-167l62 48c-98 128-229 198-370 198z m0 410c-113 0-206-93-206-207s93-208 206-208 206 93 206 208-92 207-206 207z m0-335c-70 0-127 57-127 128s57 127 127 127 127-57 127-127-57-128-127-128z" horiz-adv-x="1000" />

</font>
</defs>
</svg>
